<svg xmlns="http://www.w3.org/2000/svg" xml:space="preserve" style="enable-background:new 0 0 135.33 153.56" viewBox="0 0 135.33 153.56"><path d="M67.66 15.26c-16.32 0-31.96 6.48-43.5 18.02C12.62 44.81 6.14 60.46 6.14 76.78s6.48 31.96 18.02 43.5 27.19 18.02 43.5 18.02A61.522 61.522 0 0 0 98.42 23.5a61.504 61.504 0 0 0-30.76-8.24zm0 116.89c-14.69 0-28.77-5.83-39.15-16.22-10.38-10.38-16.22-24.47-16.22-39.15s5.83-28.77 16.22-39.15a55.36 55.36 0 0 1 78.3 0c10.38 10.38 16.22 24.47 16.22 39.15s-5.83 28.77-16.22 39.15a55.326 55.326 0 0 1-39.15 16.22z"/><path d="M76.89 104.47h-6.15v-40a3.072 3.072 0 0 0-3.08-3.08h-6.15c-1.7 0-3.08 1.38-3.08 3.08 0 1.7 1.38 3.08 3.08 3.08h3.08v36.91h-6.15c-1.7 0-3.08 1.38-3.08 3.08 0 1.7 1.38 3.08 3.08 3.08H76.9c1.7 0 3.08-1.38 3.08-3.08a3.081 3.081 0 0 0-3.09-3.07zM73.82 46.02c0 3.4-2.75 6.15-6.15 6.15s-6.15-2.76-6.15-6.15 2.75-6.15 6.15-6.15 6.15 2.75 6.15 6.15"/></svg>