<svg xmlns="http://www.w3.org/2000/svg" xml:space="preserve" style="enable-background:new 0 0 135.33 153.56" viewBox="0 0 135.33 153.56"><path d="M118.31 144.44c-.48 0-.99-.17-1.35-.51l-45.12-40.3-45.15 40.27c-.59.54-1.44.68-2.17.34s-1.21-1.04-1.21-1.86V29.27c0-10.26 8.35-18.61 18.61-18.61h59.81c10.26 0 18.61 8.35 18.61 18.61v113.14c0 .79-.48 1.52-1.21 1.86-.26.12-.54.17-.82.17zM41.91 14.72c-8.01 0-14.55 6.51-14.55 14.55v108.6l43.12-38.49c.76-.68 1.95-.68 2.71 0l43.09 38.49V29.27c0-8.01-6.51-14.55-14.55-14.55H41.91z"/><path d="M71.84 86.15c-16.22 0-29.39-13.17-29.39-29.39 0-16.19 13.17-29.39 29.39-29.39 16.19 0 29.36 13.17 29.36 29.39S88.02 86.15 71.84 86.15zm0-54.68c-13.96 0-25.32 11.36-25.32 25.32s11.36 25.32 25.32 25.32 25.3-11.36 25.3-25.32-11.34-25.32-25.3-25.32z"/><path d="M86.25 58.82H57.43c-1.13 0-2.03-.9-2.03-2.03s.9-2.03 2.03-2.03h28.82c1.13 0 2.03.9 2.03 2.03s-.9 2.03-2.03 2.03z"/><path d="M71.84 73.24c-1.13 0-2.03-.9-2.03-2.03V42.38c0-1.13.9-2.03 2.03-2.03s2.03.9 2.03 2.03V71.2c0 1.13-.91 2.04-2.03 2.04z"/></svg>