<svg xmlns="http://www.w3.org/2000/svg" viewBox="0 0 435.98 218.55"><defs><style>.cls-1,.cls-14{fill:#fbfdfc;}.cls-2,.cls-4{fill:#dfe0df;}.cls-10,.cls-11,.cls-12,.cls-13,.cls-14,.cls-15,.cls-16,.cls-17,.cls-18,.cls-19,.cls-2,.cls-20,.cls-21,.cls-22,.cls-23,.cls-24,.cls-3,.cls-5,.cls-6,.cls-7,.cls-8,.cls-9{fill-rule:evenodd;}.cls-3{fill:#142022;}.cls-5{fill:gray;}.cls-6{fill:#cacac9;}.cls-7{fill:#afafaf;}.cls-8{fill:#214f5b;}.cls-9{fill:#898887;}.cls-10{fill:#151b1b;}.cls-11{fill:#fff;}.cls-12{fill:#ec665b;}.cls-13{fill:#e84f3d;}.cls-15{fill:#007535;}.cls-16{fill:#f8b89c;}.cls-17{fill:#f28d69;}.cls-18{fill:#f5f5f5;}.cls-19{fill:#a6a6a5;}.cls-20{fill:#151818;}.cls-21{fill:#cb4331;}.cls-22{fill:#76311e;}.cls-23{fill:#082c34;}.cls-24{fill:#bf6c57;}</style></defs><g id="Capa_2" data-name="Capa 2"><g id="Capa_1-2" data-name="Capa 1"><rect class="cls-1" x="414.94" y="167.11" width="15.53" height="4.11"></rect><path class="cls-2" d="M423.9,175.54v-.29c0-.19,0-.46,0-.8,0-.71,0-1.73,0-3l0,0-15.53,0s-.07.09.09-.08v1c0,.35,0,.7,0,1v2l-.08-.08,11.07,0,3.26,0h0l-3.25,0-11.12,0h-.07v-4.19l.07-.07,15.53,0H424v0c0,1.3,0,2.33,0,3,0,.34,0,.6,0,.79s0,.16,0,.2Z"></path><path class="cls-2" d="M15.6,92.48V92.4s0-.12,0-.21,0-.45,0-.8c0-.71,0-1.73,0-3l0,0-15.52,0s-.08.08.07-.08v4.11L.08,92.4l11.06,0,3.27,0h0l-3.24,0-11.12,0H0V88.37c.15-.15,0,0,.08-.07l15.52,0h.05v0c0,1.3,0,2.33,0,3,0,.35,0,.61,0,.81v.26Z"></path><path class="cls-2" d="M191.82,28v-.29c0-.19,0-.45,0-.81,0-.7,0-1.72,0-3l0,.05-15.53,0s-.08.08.08-.08V28l-.08-.08,11.06,0,3.27,0h0l-3.24,0-11.12,0h-.08V23.93l.08-.08,15.53,0h0v0c0,1.3,0,2.33,0,3,0,.35,0,.61,0,.8a1.64,1.64,0,0,0,0,.2Z"></path><path class="cls-2" d="M193.92,23.93v-.08c0-.05,0-.13,0-.22s0-.47,0-.82c0-.72,0-1.74,0-3l.06.06-9.33,0,.08-.08v4.11l-.08-.08,6.68,0,1.94,0h.71s0,0-.17,0h-.51l-1.92,0-6.73,0h-.07V21.94c0-.34,0-.69,0-1.05V19.82s.15-.15.08-.07l9.33,0H194v.05c0,1.27,0,2.3,0,3,0,.35,0,.61,0,.82A1.27,1.27,0,0,1,193.92,23.93Z"></path><path class="cls-2" d="M433.82,35.88v-.29c0-.2,0-.46,0-.81,0-.7,0-1.72,0-3l.05.05-15.53,0,.08-.08v4.11l-.08-.08,11.07,0,3.26,0h0l-3.25,0-11.12,0h-.08V31.77l.08-.08,15.53,0h.05v.05c0,1.3,0,2.33,0,3,0,.34,0,.6,0,.8s0,.15,0,.2Z"></path><path class="cls-2" d="M435.92,31.77v-.08c0-.06,0-.13,0-.22s0-.48,0-.81c0-.73,0-1.75,0-3l.06.06-9.32,0c-.08.08.09-.1.07-.08v4.11l-.07-.07,6.67,0,1.94,0h0l-1.92,0-6.72,0h-.08V29.78c0-.34,0-.69,0-1.05V27.66s.15-.15.09-.08l9.32,0H436v.05c0,1.27,0,2.3,0,3,0,.34,0,.61,0,.81A1.45,1.45,0,0,1,435.92,31.77Z"></path><path class="cls-3" d="M427.1,199.42c0,.09-93.15.16-208,.16s-208-.07-208-.16,93.13-.17,208.05-.17S427.1,199.32,427.1,199.42Z"></path><rect class="cls-4" x="25.07" y="139.27" width="321.26" height="43.65"></rect><path class="cls-5" d="M342.49,182.91h-62l0-4c-.07-.87-.11-1.74-.11-2.63,0-17.95,13.79-32.49,30.8-32.49S342,158.37,342,176.32c0,.89,0,1.76-.11,2.63h.63v4Zm-238.16,0H42.79l0-7.78c.6-17.39,14.14-31.3,30.77-31.3s30.17,13.91,30.77,31.3Z"></path><path class="cls-2" d="M364.86,136.68c-9.12-5.65-32.81-14.51-39.38-15.26-4-.46-21.72-2.9-21.72-2.9l-5.73-.46S237,87.78,227.23,84c-15-5.82-46.84-10.87-80.55-6.71,0,0-45.06,4.12-55.07,7s-58.44,18-58.44,18-21.24,2.24-20.91,3.06a6.71,6.71,0,0,0,2.06,3V122a32,32,0,0,0-3,4.73c-.58,1.52-1.91,13.58-1.91,13.58s-6.35,15.11-6.35,19.08,11.5,19.22,14.3,21.51,25.39,5.63,25.39,5.63l0-11.43c.6-17.39,14.14-31.3,30.77-31.3s30.17,13.91,30.77,31.3l.07,14.81H280.6l-.11-11c-.07-.87-.11-1.74-.11-2.63,0-17.95,13.79-32.49,30.8-32.49S342,158.37,342,176.32c0,.89,0,1.76-.11,2.63h.63v11H362.8s16.49-12.67,16.05-19.08V152.81a9.64,9.64,0,0,0-2.45-6.46A53,53,0,0,0,364.86,136.68Z"></path><path class="cls-6" d="M9.46,140.32c0-.12.14-1.23.32-2.75C9.6,139.09,9.47,140.2,9.46,140.32Z"></path><path class="cls-7" d="M362.8,189.94H342.49v-11h-.63c.07-.86.11-1.73.11-2.62,0-17.95-13.79-32.49-30.79-32.49s-30.8,14.54-30.8,32.49c0,.89,0,1.76.11,2.62l.12,11h-8.79c-.91-5.44-2.12-11.31-3.41-13.82a24.75,24.75,0,0,0-2-3.17c.22-1.32.43-2.63.62-3.93.74-5,1.24-9.82,1.54-14.38,1.05-3,2.21-6.26,3.35-9.58l15.1,1.56a50.7,50.7,0,0,1,25.12-7c1.17,0,2.37,0,3.6.15,18.68,1.59,27.82,19.69,27.82,19.69l20.76,1.14,1.55-7.32,13,6.66v11a2.17,2.17,0,0,1,0,.26c0,6.49-16.06,18.81-16.06,18.81Zm-109.1,0H104.36l-.06-14.81c-.6-17.38-14.14-31.3-30.77-31.3s-30.17,13.92-30.77,31.3l0,11.43s-22.59-3.34-25.39-5.63-14.3-17.55-14.3-21.51,6.35-19.08,6.35-19.08h0c0-.13.14-1.23.32-2.76l.91-.77a75.21,75.21,0,0,0,36.47,15.6,21.24,21.24,0,0,1,4.09-4.11A38.14,38.14,0,0,1,55.07,146a39.5,39.5,0,0,1,16.8-4.6,7.4,7.4,0,0,1,.82,0h1.17c.66,0,1.31,0,1.94.05,1.28.11,2.52.17,3.71.35A44.06,44.06,0,0,1,86,143.1a37.88,37.88,0,0,1,5.19,1.9,29.13,29.13,0,0,1,3.64,2.06A18.91,18.91,0,0,1,97,148.68c.09.08.16.15.24.21s.15.24.23.36c5.36,8,11.48,16.92,18.26,26.59a18.14,18.14,0,0,0,2.69,3.3,14.88,14.88,0,0,0,3.49,2.56,11.09,11.09,0,0,0,4.2,1.23c.46,0,.92,0,1.38,0h3c5.93,0,12.07.17,18.38.3l22.69.54c0,.36,0,.68,0,.94s0,.37,0,.5,0,.16,0,.16,0-.05,0-.16,0-.3,0-.5,0-.58,0-.94l16.9.4c22.89.43,44.6.85,63.84,1.2.36,1.37.78,2.87,1.27,4.54Zm-1.37-4.88c-.65-2.43-1.13-4.41-1.47-6.06-15.55-.15-55.93-.57-79-1.21-.06,2-.11,3.74-.15,5,0,.22,0,.42,0,.59l16.9.4,63.73,1.25Zm-80.75-1.65v-.6c0-1.29,0-3,.07-5-8.69-.24-14.88-.52-16.25-.84-6-1.33-38.66-15.59-38.66-15.59.19-.26.67-.37,1.39-.37,7.53,0,41,13,41,13l12.57.09c.09-5.8.22-13.32.35-21.56.08-5.83.18-11.32.17-16.07-5.71-.18-11.89-.36-17.85-.5.11,4.24.23,8.39.35,12.41q.09,3.4.18,6.68c0,.55,0,1.09,0,1.63a12.66,12.66,0,0,1,0,1.63,3,3,0,0,1-2,2.46,3.6,3.6,0,0,1-1.33.18h-4.79l-5.74,0-10.31,0H115.32a5.37,5.37,0,0,1-.7,0,2.92,2.92,0,0,1-2.2-1.64,2.85,2.85,0,0,1-.27-1,3.24,3.24,0,0,1,0-.36,3.24,3.24,0,0,1,0-.36q0-.37,0-1.05c0-.95.07-2.31.13-4.06.12-3,.27-7.24.46-12.36a69.32,69.32,0,0,0-15,9.17c5.35,7.93,11.46,16.8,18.21,26.42h0a16.59,16.59,0,0,0,6.06,5.73,10.52,10.52,0,0,0,4.07,1.19c.44,0,.88,0,1.33,0h3.07c5.93,0,12.07.17,18.39.29l22.68.52Zm78.51-8.85c-.15-1.21-.24-2.24-.31-3.25-.22-3.3-3.18-14.71-8.51-29.4l-45.69-4.7s-10.28-.41-23-.81c0,4.76,0,10.24-.11,16.07-.13,8.24-.3,15.78-.45,21.55l78.1.54Zm16-2c.2-1.21.39-2.41.58-3.6.68-4.64,1.17-9.11,1.49-13.38-1.64,4.61-3,8.33-3.44,10-1,3.19,0,5.08,1.37,7Zm-154-14.69ZM97,148.62l-.12-.18c-1.55-1.59-5.69-4.94-14.29-6.46,1.23.25,2.4.55,3.5.85a38.81,38.81,0,0,1,5.19,2A26.92,26.92,0,0,1,95,146.93,18.34,18.34,0,0,1,97,148.62Z"></path><path class="cls-3" d="M65.25,103.33a2.24,2.24,0,0,0,1,4l15.49,2.14,88,10.06,107.32,6.17a4.88,4.88,0,0,0,4.4-2.15c.91-1.42,1.26-3.39-1-5.64-4.5-4.49-24.43-16.08-29.11-18.37a157.77,157.77,0,0,0-86.5-19.91c-14.83.54-43.3,4.93-80.08,9.92a4.62,4.62,0,0,0-2.18.9Z"></path><path class="cls-8" d="M83.56,107.82c.22-.68,8.14-16.2,9.68-17.11s65.59-9.35,66.47-8.22,3.08,33.77,3.08,33.77Z"></path><polygon class="cls-3" points="107.96 88.34 107.41 111.11 110.71 111.11 110.71 87.96 107.96 88.34"></polygon><path class="cls-3" d="M261.87,105.43l.16.34c.1.24.25.59.45,1s.47,1,.72,1.71.56,1.48.9,2.38a82.73,82.73,0,0,1,3.76,16.29,136,136,0,0,1,.78,26c-.28,5-.81,10.32-1.63,15.87-.41,2.78-.89,5.62-1.49,8.51a14.31,14.31,0,0,1-.56,2.16,15.86,15.86,0,0,1-1,2,41.91,41.91,0,0,1-2.48,3.8l0,.07h-.09l-72.75-1.37c-13.75-.34-27.07-.65-39.71-1-6.31-.13-12.45-.25-18.37-.3-.74,0-1.48,0-2.21,0s-1.47,0-2.21,0a10.75,10.75,0,0,1-4.2-1.23,14.93,14.93,0,0,1-3.48-2.55,18.3,18.3,0,0,1-2.71-3.32h0c-6.78-9.67-12.9-18.61-18.26-26.59-2.67-4-5.17-7.75-7.41-11.25s-4.29-6.74-6-9.74a42.79,42.79,0,0,1-2.28-4.37c-.14-.36-.29-.71-.43-1.06s-.21-.72-.32-1.06-.22-.7-.28-1-.13-.68-.19-1a15.32,15.32,0,0,1,.45-6.84A14.7,14.7,0,0,1,82.7,109a8.74,8.74,0,0,1,.86-1.17l-.22.3c-.14.2-.34.49-.6.9a15.61,15.61,0,0,0-1.68,3.87,15.34,15.34,0,0,0-.39,6.79c.06.33.12.67.19,1a9.85,9.85,0,0,0,.28,1c.11.35.18.7.32,1s.29.7.44,1a41.41,41.41,0,0,0,2.28,4.33c1.74,3,3.78,6.23,6,9.71S95,145.1,97.67,149.1c5.37,8,11.51,16.88,18.3,26.54h0a16.6,16.6,0,0,0,6.07,5.75,10.76,10.76,0,0,0,4.06,1.18c.71,0,1.44,0,2.18,0s1.48,0,2.22,0c5.93,0,12.07.15,18.38.28l39.71.93,72.75,1.42-.14.07a40.53,40.53,0,0,0,2.46-3.77,15.66,15.66,0,0,0,1-2,13.74,13.74,0,0,0,.55-2.12c.6-2.87,1.08-5.71,1.5-8.48.83-5.54,1.37-10.85,1.67-15.85a138,138,0,0,0-.71-25.92A85.61,85.61,0,0,0,264,110.94c-.33-.91-.63-1.71-.88-2.39s-.51-1.26-.7-1.73-.33-.79-.43-1S261.87,105.43,261.87,105.43Z"></path><path class="cls-3" d="M171.07,119.6a2.31,2.31,0,0,1,.19.64c.09.43.22,1.06.36,1.88.25,1.65.52,4,.7,7,.39,6,.23,14.21.12,23.3s-.34,17.34-.5,23.3c-.09,3-.16,5.36-.21,7.06,0,.81-.06,1.45-.08,1.92,0,.2,0,.36,0,.5s0,.17,0,.17,0-.06,0-.17,0-.3,0-.5c0-.47,0-1.11,0-1.92,0-1.7.06-4.11.1-7.06.1-6,.23-14.21.39-23.3s.31-17.34,0-23.29c-.15-3-.38-5.37-.59-7-.11-.82-.21-1.45-.29-1.89,0-.19-.06-.35-.08-.48S171.06,119.6,171.07,119.6Z"></path><path class="cls-8" d="M171.81,81.85l6.56,34.41,70,5.16,10.78-15.17s-27.13-16-51-20.82C184,80.54,171.81,81.85,171.81,81.85Z"></path><path class="cls-9" d="M250.85,179c-15.54-.14-55.92-.56-79-1.21,0-.64,0-1.31.06-2,0-.56,0-1.14.05-1.74l78.09.54c.16,1.23.4,2.65.77,4.43Zm-79.2-1.21c-8.69-.25-14.88-.53-16.25-.84-6-1.34-38.66-15.6-38.66-15.6.19-.26.67-.38,1.39-.38,7.53,0,41,13,41,13l12.56.09c0,.6,0,1.18,0,1.74S171.66,177.13,171.65,177.78Z"></path><path class="cls-10" d="M171.88,177.78h-.23c0-.65,0-1.32,0-2s0-1.14,0-1.74H172c0,.6,0,1.18-.05,1.74C171.92,176.47,171.9,177.14,171.88,177.78Z"></path><path class="cls-3" d="M97.66,149.32l-.18-.16a6.16,6.16,0,0,0-.5-.48,20.79,20.79,0,0,0-2.1-1.63,29.7,29.7,0,0,0-3.66-2,36.25,36.25,0,0,0-5.17-1.91,44.34,44.34,0,0,0-6.55-1.31c-1.18-.19-2.42-.24-3.7-.35-.64-.06-1.28,0-1.94-.05h-.6a10.79,10.79,0,0,0-1.39,0A39.78,39.78,0,0,0,55.07,146a36,36,0,0,0-6.5,4.32l-.15.14-.12-.17c-3.12-4.46-6-8.68-8.54-12.56s-4.64-7.41-6.37-10.38-3.08-5.38-4-7l-1.05-1.92c-.11-.2-.19-.36-.26-.5s-.09-.17-.08-.17l.11.15c.07.13.17.29.29.49l1.1,1.87,4.09,7c1.76,2.95,3.91,6.46,6.44,10.32s5.45,8.07,8.57,12.53l-.27,0a35.12,35.12,0,0,1,6.57-4.38,39.75,39.75,0,0,1,17-4.61c.68-.06,1.35,0,2,0s1.31,0,1.95.06c1.28.12,2.53.18,3.72.37a43.28,43.28,0,0,1,6.58,1.37,36.3,36.3,0,0,1,5.19,2A28,28,0,0,1,95,146.93,17.3,17.3,0,0,1,97,148.62l.48.51A1,1,0,0,1,97.66,149.32Z"></path><path class="cls-3" d="M14,167.45a6,6,0,0,1-.27-1.09c-.15-.7-.35-1.73-.58-3-.46-2.54-1-6.05-1.6-10s-1-7.43-1.24-10c-.13-1.29-.22-2.33-.27-3a6.84,6.84,0,0,1-.05-1.13,5.24,5.24,0,0,1,.19,1.11c.1.79.23,1.8.4,3,.32,2.56.79,6.09,1.34,10s1.09,7.41,1.49,9.94c.19,1.22.34,2.24.46,3A6.92,6.92,0,0,1,14,167.45Z"></path><path class="cls-3" d="M43.42,170a2,2,0,0,1-.38,0H42c-.93,0-2.28,0-4-.09-3.34-.11-7.95-.38-13-.9s-9.65-1.2-12.95-1.76c-1.64-.29-3-.53-3.89-.73l-1.06-.22c-.24-.06-.36-.09-.36-.11a1.79,1.79,0,0,1,.38,0l1.06.16,3.91.59c3.3.5,7.88,1.13,13,1.65s9.66.84,13,1l3.95.21L43,170C43.29,170,43.42,170,43.42,170Z"></path><path class="cls-11" d="M365.85,153.24s-4.05-9.72-3.93-10.05c.62-1.74,2.94-6.51,2.94-6.51a44.09,44.09,0,0,1,4.21,2.8,53.47,53.47,0,0,1,7.84,7.07,7.93,7.93,0,0,1,1.94,5.21v8.15Z"></path><path class="cls-3" d="M277.74,108.23a23.06,23.06,0,0,1-1.88,2.62,21.85,21.85,0,0,1-1.95,2.56,10.39,10.39,0,0,1,1.66-2.8A9.61,9.61,0,0,1,277.74,108.23Z"></path><path class="cls-12" d="M14.32,108.45s30.67,2.6,30.33,3.3S14.32,122,14.32,122Z"></path><path class="cls-3" d="M14.22,122.42a65.5,65.5,0,0,1-.19-7,62.2,62.2,0,0,1,.19-6.95,65.23,65.23,0,0,1,.19,6.95A65.5,65.5,0,0,1,14.22,122.42Z"></path><path class="cls-3" d="M343.54,159.42l-.16-.28c-.11-.17-.26-.45-.47-.8-.42-.7-1.1-1.72-2-3a45.9,45.9,0,0,0-3.7-4.45,38.6,38.6,0,0,0-5.84-5.1,32.08,32.08,0,0,0-8.4-4.36,35.25,35.25,0,0,0-10.88-1.72,47.19,47.19,0,0,0-12.42,1.37,37.78,37.78,0,0,0-6.41,2.16,29.18,29.18,0,0,0-6.13,3.52l-.06.05H287L240.3,142l-43.39-4.48-1.25-.13-1.24-.07-2.46-.12-4.82-.22-9.22-.34c-6-.19-11.51-.31-16.57-.38-10.14-.16-18.33-.17-24-.2l-6.52,0-1.69,0-.58,0,.58,0,1.69,0,6.52,0c5.68,0,13.87,0,24,.08,5.07.07,10.62.16,16.57.33,3,.1,6.06.2,9.24.33l4.82.21,2.47.12,1.24.07,1.25.12,43.39,4.45c16.73,1.73,32.61,3.37,46.69,4.81l-.12,0a28.34,28.34,0,0,1,6.22-3.56,38,38,0,0,1,6.46-2.17,47.7,47.7,0,0,1,12.49-1.35,36.06,36.06,0,0,1,11,1.77,32.31,32.31,0,0,1,8.44,4.44,38.19,38.19,0,0,1,5.83,5.16,44.14,44.14,0,0,1,3.68,4.5c.91,1.3,1.57,2.32,2,3A12.05,12.05,0,0,1,343.54,159.42Z"></path><path class="cls-3" d="M257.2,179.05h-1.44l-4.11-.05-15.15-.25-50-1L159,177.19l-1.57,0a13.76,13.76,0,0,1-1.57-.08,11.64,11.64,0,0,1-2.93-1c-1.86-.78-3.67-1.5-5.43-2.21-3.51-1.39-6.79-2.64-9.8-3.79-6-2.28-10.85-4.16-14.17-5.54-1.66-.69-3-1.23-3.81-1.62l-1-.44a2.29,2.29,0,0,1-.33-.16l.34.13,1,.4,3.83,1.55c3.34,1.33,8.2,3.18,14.22,5.42,3,1.14,6.3,2.37,9.81,3.75,1.76.7,3.58,1.42,5.44,2.2a11.4,11.4,0,0,0,2.85,1,12.76,12.76,0,0,0,1.53.07l1.58,0,27.51.55,50,1.09,15.15.38,4.12.12,1.07,0Z"></path><path class="cls-2" d="M249.1,106a23.87,23.87,0,0,0-2.5,11.25,5.23,5.23,0,0,0,5.11,5l12.62.11a3.78,3.78,0,0,0,3.78-3.25,3.57,3.57,0,0,0-.32-2c-1.31-2.77-2.41-2.25-2.41-2.25s-3.81-8.17-9.62-11.26A4.88,4.88,0,0,0,249.1,106Z"></path><path class="cls-3" d="M262.16,122.36s.5-.1,1.14-.57a5,5,0,0,0,1.84-2.58,11.69,11.69,0,0,0,.25-3.16,3.87,3.87,0,0,0-.11-1.3,4,4,0,0,0-.2,1.29,15.68,15.68,0,0,1-.37,3,5.13,5.13,0,0,1-1.6,2.45C262.55,122.06,262.13,122.29,262.16,122.36Z"></path><path class="cls-11" d="M263.11,113.17a5.49,5.49,0,0,0-.7-1.7,15.93,15.93,0,0,0-2.61-3.54,15.53,15.53,0,0,0-3.43-2.67,5.35,5.35,0,0,0-1.64-.72,30.72,30.72,0,0,1,4.77,3.71A30.11,30.11,0,0,1,263.11,113.17Z"></path><path class="cls-8" d="M165.76,79.57a1.48,1.48,0,0,1,.11.4l.23,1.15c.19,1,.46,2.46.77,4.27.63,3.6,1.44,8.58,2.24,14.1s1.39,10.54,1.7,14.19c.09.9.14,1.73.18,2.46s.09,1.35.09,1.87,0,.86,0,1.17a1.85,1.85,0,0,1,0,.41,1.87,1.87,0,0,1,0-.4c0-.31-.05-.7-.09-1.18s-.08-1.13-.15-1.86-.13-1.54-.23-2.45c-.38-3.63-1-8.64-1.81-14.15S167.17,89,166.61,85.43c-.27-1.77-.49-3.21-.65-4.28-.07-.47-.12-.85-.17-1.16A2.17,2.17,0,0,1,165.76,79.57Z"></path><path class="cls-7" d="M14.32,122h0s30-9.58,30.33-10.28c0,.48-18.65,6.61-30.33,10.28ZM42.9,111.32c-2-.3-5.39-.69-9.18-1.08C37.26,110.59,40.75,110.94,42.9,111.32Z"></path><path class="cls-13" d="M14.32,122l15.17-9.33.44-2.83,3.79.37c3.79.39,7.21.78,9.18,1.08a8.46,8.46,0,0,1,1.75.43C44.31,112.45,14.32,122,14.32,122Z"></path><path class="cls-6" d="M378.86,159.91h0l-13-6.66c-1.59-3.87-3-7.49-3.93-10.05l8.11,7.14,8.83,1.43Z"></path><path class="cls-3" d="M361.83,143.2a1,1,0,0,1-.21-.08l-.59-.25c-.54-.24-1.29-.58-2.25-1l-8.25-3.66c-3.5-1.54-7.66-3.36-12.32-5.26-2.34-.93-4.79-1.94-7.39-2.71-1.31-.34-2.69-.55-4.08-.79l-4.23-.7c-11.44-1.81-21.82-3.34-29.32-4.48l-8.89-1.36-2.41-.38-.63-.11c-.14,0-.22,0-.21-.05s.07,0,.21,0l.64.07,2.42.32,8.9,1.23c7.52,1.07,17.9,2.55,29.35,4.36,1.43.24,2.84.48,4.24.7s2.76.46,4.1.81c2.64.79,5.09,1.81,7.43,2.74,4.66,1.94,8.81,3.78,12.29,5.34s6.28,2.87,8.21,3.78l2.22,1.06.58.28Z"></path><path class="cls-3" d="M44.66,177C44.43,193.45,57.09,207,73,207.19s28.87-12.88,29.1-29.31-12.43-29.94-28.28-30.17S44.89,160.59,44.66,177Z"></path><path class="cls-3" d="M44.66,176.94V177C44.43,193.45,57.09,207,72.94,207.2s28.89-12.89,29.11-29.32v-.08Z"></path><path class="cls-14" d="M53.21,177.15c-.16,11.53,8.73,21,19.86,21.18s20.27-9,20.43-20.58-8.73-21-19.85-21.18S53.37,165.62,53.21,177.15Z"></path><path class="cls-2" d="M73.65,156.57c-11.13-.17-20.28,9-20.44,20.58l40.29.6C93.66,166.21,84.78,156.73,73.65,156.57Z"></path><path class="cls-3" d="M61.08,177.27a12.28,12.28,0,1,0,12.45-12.54A12.53,12.53,0,0,0,61.08,177.27Z"></path><path class="cls-3" d="M282.17,177c-.23,16.43,12.43,29.94,28.28,30.17s28.89-12.88,29.12-29.31-12.44-29.94-28.29-30.17S282.4,160.59,282.17,177Z"></path><path class="cls-3" d="M282.18,176.94V177c-.23,16.43,12.43,29.93,28.28,30.18s28.89-12.89,29.12-29.32v-.08Z"></path><path class="cls-14" d="M290.72,177.15c-.16,11.53,8.73,21,19.86,21.18s20.27-9,20.43-20.58-8.73-21-19.85-21.18S290.88,165.62,290.72,177.15Z"></path><path class="cls-2" d="M311.16,156.57c-11.13-.17-20.28,9-20.44,20.58l40.29.6C331.17,166.21,322.28,156.73,311.16,156.57Z"></path><path class="cls-3" d="M298.59,177.27A12.28,12.28,0,1,0,311,164.73,12.53,12.53,0,0,0,298.59,177.27Z"></path><path class="cls-11" d="M202.48,110.49c0-.11,5.27-3,11.88-6.44s12-6.18,12-6.09-5.27,3-11.87,6.44S202.53,110.58,202.48,110.49Z"></path><path class="cls-11" d="M195.08,109.73c-.05-.1,5-2.94,11.27-6.36s11.41-6.12,11.46-6-5,3-11.28,6.36S195.13,109.83,195.08,109.73Z"></path><path class="cls-11" d="M121.09,108.46a5.86,5.86,0,0,1,1-.49l2.87-1.18,9.47-3.92,9.42-4,2.86-1.22a7.22,7.22,0,0,1,1.07-.4,7.29,7.29,0,0,1-1,.54c-.66.32-1.62.78-2.82,1.33-2.38,1.11-5.69,2.59-9.38,4.14s-7.06,2.89-9.51,3.81c-1.23.47-2.23.84-2.91,1.08A7.8,7.8,0,0,1,121.09,108.46Z"></path><path class="cls-11" d="M127.92,100.29a64.3,64.3,0,0,1,6.15-3.07,60,60,0,0,1,6.3-2.71,64.3,64.3,0,0,1-6.15,3.07A53.22,53.22,0,0,1,127.92,100.29Z"></path><path class="cls-3" d="M378.86,159.91a6.53,6.53,0,0,1-.07-1.18c0-.82,0-1.9-.07-3.18s0-3-.07-4.73-1.4-3.33-2.62-4.91A25.9,25.9,0,0,0,372,142c-1.35-1.1-2.61-2-3.67-2.81s-1.87-1.36-2.52-1.82a9.77,9.77,0,0,1-.92-.7,4.75,4.75,0,0,1,1,.56c.63.4,1.52,1,2.6,1.73s2.36,1.67,3.73,2.75a25.83,25.83,0,0,1,4.14,4,22,22,0,0,1,1.73,2.43,6.25,6.25,0,0,1,.94,2.68c.06,1.81,0,3.4,0,4.76s0,2.36-.06,3.18A8,8,0,0,1,378.86,159.91Z"></path><path class="cls-11" d="M276,34.72l4.05.73a12.37,12.37,0,1,0-2.28-3.78h0Z"></path><path class="cls-3" d="M276,34.72l.12-.2c.09-.13.2-.33.36-.58.3-.53.75-1.28,1.32-2.25h0v-.05a12.3,12.3,0,0,1-.68-5.93,13.31,13.31,0,0,1,.39-1.85,14.23,14.23,0,0,1,.75-1.91,12.23,12.23,0,0,1,2.63-3.58,12.08,12.08,0,0,1,4.19-2.56,11.94,11.94,0,0,1,10.6,1.11,11.89,11.89,0,0,1,4.1,4.26,12.17,12.17,0,0,1-2.42,15.15,12.46,12.46,0,0,1-4.15,2.45,12.26,12.26,0,0,1-13.13-3.38l0,0c-1.31-.22-2.32-.38-3-.51l-.78-.12-.27-.05a1.57,1.57,0,0,0,.25.06l.76.14,3,.57h0a12.18,12.18,0,0,0,5,3.42,12.34,12.34,0,0,0,8.27.08,12.48,12.48,0,0,0,4.22-2.48A12.37,12.37,0,0,0,300,21.09l-.39-.66c-.15-.22-.3-.42-.46-.63a10.92,10.92,0,0,0-1-1.16c-.17-.19-.37-.35-.55-.53a6.68,6.68,0,0,0-.57-.49,11.72,11.72,0,0,0-1.22-.87,12.85,12.85,0,0,0-5.44-1.84,12.38,12.38,0,0,0-5.35.73,12.19,12.19,0,0,0-4.24,2.62,12,12,0,0,0-2.66,3.65,12.69,12.69,0,0,0-.75,1.92,13.83,13.83,0,0,0-.39,1.89,12.49,12.49,0,0,0,.74,6l.09-.05h-.09L276.43,34l-.33.58Z"></path><polygon class="cls-15" points="289.62 32.32 283.58 28.29 285 26.18 289.04 28.89 294.07 22.23 296.09 23.75 289.62 32.32"></polygon><path class="cls-3" d="M231.58,73.46a1.37,1.37,0,0,1,.65-1.07c5.74-3.79,10.06-12.21,10.5-19.33l0-1.24h0c.34-10.18,1.84-22.54,3.18-25.84,2.49-6.08,10.92-6.66,10.92-6.66C268,18.53,270,27.13,271.17,35c.7,4.87,3.4,22.26,3.4,22.26l-2.05.79a25.32,25.32,0,0,1-15,15.65c-2.06.77-3.8,1.09-4.62.42a28.27,28.27,0,0,1-11.77,7.15,14.74,14.74,0,0,1-5.58.74,4.5,4.5,0,0,1-3.24-1.51A2.8,2.8,0,0,1,234.75,76C234.33,74.61,231.54,75,231.58,73.46Z"></path><path class="cls-16" d="M255.28,22.17l.7-.67,5.91,2.39c1.1.06,2.91,2.16,2.94,3.25l-.11,24c0,1.68.42,3.16-.59,4.5l-1.06,1.39a5.58,5.58,0,0,1-9.32-.58,3.73,3.73,0,0,1-.27-.64,4.45,4.45,0,0,1-.11-.55c-.22-2-.46-3.37-.46-3.37l0-3.38s-4.63-.53-5.88-6.48c-.62-3-.5-7-.33-11C247,25.51,250.83,22.17,255.28,22.17Z"></path><path class="cls-3" d="M256.06,35.13a.76.76,0,0,0,.78.73.72.72,0,0,0,.76-.72.77.77,0,0,0-.78-.74A.73.73,0,0,0,256.06,35.13Z"></path><path class="cls-3" d="M248.36,35.13a.76.76,0,0,0,.78.73.73.73,0,0,0,.76-.72.77.77,0,0,0-.78-.74A.72.72,0,0,0,248.36,35.13Z"></path><path class="cls-3" d="M247.62,33c.1.1.66-.37,1.49-.41s1.45.35,1.54.24-.07-.22-.34-.4a2.16,2.16,0,0,0-1.24-.32,2,2,0,0,0-1.18.45C247.65,32.73,247.57,32.91,247.62,33Z"></path><path class="cls-3" d="M256,33c.11.09.62-.43,1.44-.56s1.48.2,1.56.09-.09-.22-.38-.37a2.13,2.13,0,0,0-1.27-.19,2.08,2.08,0,0,0-1.12.57C256,32.81,256,33,256,33Z"></path><path class="cls-3" d="M253.12,39.06a5.86,5.86,0,0,0-1.35-.17c-.22,0-.42,0-.46-.19a1.06,1.06,0,0,1,.11-.63c.17-.52.35-1.07.55-1.64a28.32,28.32,0,0,0,1.19-4.28,27.61,27.61,0,0,0-1.54,4.17L251.1,38a1.22,1.22,0,0,0-.07.83.55.55,0,0,0,.37.3,1.59,1.59,0,0,0,.36,0A5.26,5.26,0,0,0,253.12,39.06Z"></path><path class="cls-17" d="M253,48.55A15.27,15.27,0,0,0,260.88,46s-1.92,4.26-7.95,4Z"></path><path class="cls-17" d="M253.57,41a1.49,1.49,0,0,1,1.31-.62,1.34,1.34,0,0,1,1,.45.87.87,0,0,1,.12,1,1,1,0,0,1-1.07.32,3.17,3.17,0,0,1-1.09-.57,1,1,0,0,1-.25-.24.27.27,0,0,1,0-.3Z"></path><path class="cls-3" d="M255.58,39.51c-.13,0-.09.9-.82,1.57s-1.7.63-1.7.76.22.16.63.15a2.2,2.2,0,0,0,1.41-.57,2,2,0,0,0,.64-1.32C255.76,39.72,255.65,39.5,255.58,39.51Z"></path><path class="cls-3" d="M255.22,29.82c.11.21.92,0,1.89-.05s1.79.11,1.89-.11-.12-.3-.47-.46a3.44,3.44,0,0,0-1.46-.28,3.15,3.15,0,0,0-1.42.4C255.32,29.52,255.17,29.71,255.22,29.82Z"></path><path class="cls-3" d="M247.74,29.4c.15.19.71,0,1.4-.09s1.27.07,1.39-.13-.05-.28-.31-.45a2,2,0,0,0-2.25.18C247.74,29.11,247.67,29.31,247.74,29.4Z"></path><path class="cls-3" d="M265.47,37.43s-4.24,1.32-6.63-9.14c-.82-3.57-4.13-6.46-4.13-6.46l1.34-.41s8.35,2.35,8.49,2.46,2.11,4.32,2.11,4.32Z"></path><path class="cls-16" d="M263.82,36.84c0-.44.44-1.52.88-1.61C265.87,35,268,35,268.16,38c.23,4.08-3.92,3.48-3.93,3.36S263.89,38.38,263.82,36.84Z"></path><path class="cls-17" d="M265.39,39.71s.07,0,.2.09a.81.81,0,0,0,.53,0,1.75,1.75,0,0,0,.72-1.63,2.27,2.27,0,0,0-.25-1,.89.89,0,0,0-.57-.53.38.38,0,0,0-.41.22.57.57,0,0,0,0,.22s-.1-.07-.07-.24a.4.4,0,0,1,.14-.26.52.52,0,0,1,.39-.13,1,1,0,0,1,.78.59,2.4,2.4,0,0,1,.31,1.13,1.84,1.84,0,0,1-.94,1.82.79.79,0,0,1-.65-.07C265.41,39.8,265.38,39.71,265.39,39.71Z"></path><path class="cls-8" d="M268.18,52.86a1.81,1.81,0,0,0,0-.2c0-.14.07-.33.11-.58.09-.53.21-1.27.36-2.21l-.09,0c0,.15-.05.31-.07.48h0l-.08.18.1,0A39.16,39.16,0,0,0,269.86,44a40.34,40.34,0,0,0,.25-4.25,18.74,18.74,0,0,0-.41-4.66,7,7,0,0,0-.74-1.86,10,10,0,0,0-1.13-1.57c-.83-1-1.72-1.79-2.54-2.61-1.65-1.62-3.13-3.08-4.39-4.3s-2.25-2.22-3-2.91c-.35-.32-.62-.59-.82-.78l-.21-.2-.08-.06.06.08.21.21.79.81,2.92,2.93,4.36,4.35c.81.82,1.71,1.65,2.52,2.6a8.14,8.14,0,0,1,1.84,3.35,19.83,19.83,0,0,1,.4,4.62c0,1.49-.09,2.91-.23,4.24a40.82,40.82,0,0,1-1.26,6.55l.11,0a1.42,1.42,0,0,0,.08-.18h0c0-.17.05-.33.07-.48l-.1,0c-.14,1-.25,1.71-.32,2.23,0,.25-.06.44-.08.58S268.17,52.86,268.18,52.86Z"></path><path class="cls-8" d="M270.9,33.05s0-.06-.07-.17-.14-.29-.24-.48c-.21-.42-.53-1-1-1.72s-1-1.54-1.61-2.43-1.41-1.84-2.26-2.78a35.68,35.68,0,0,0-2.52-2.54c-.82-.74-1.59-1.37-2.25-1.87s-1.22-.89-1.61-1.13l-.45-.29c-.11-.06-.16-.1-.16-.09s0,.05.14.12l.43.32c.38.26.91.67,1.57,1.18s1.4,1.15,2.21,1.89,1.66,1.6,2.5,2.53,1.6,1.89,2.26,2.76,1.2,1.7,1.64,2.4.78,1.28,1,1.68l.27.47A.72.72,0,0,0,270.9,33.05Z"></path><path class="cls-17" d="M200.87,65l-4,2.73a1.32,1.32,0,0,0,1.89.6,43.2,43.2,0,0,0,3.86-2.14l1.91.77L206,65.2l-4.72-.3A.56.56,0,0,0,200.87,65Z"></path><path class="cls-16" d="M216.45,71.16l-10-6-.15,0h-1.09l-4.05.54-.15.07-3.76,3a.3.3,0,0,0,.09.51,4.65,4.65,0,0,0,1.89.12,9.28,9.28,0,0,0,2.87-1.67.24.24,0,0,1,.23-.06l2.67.48a.27.27,0,0,1,.24.28l0,.32a.31.31,0,0,1-.17.29,4.67,4.67,0,0,1-2.53.48,8.5,8.5,0,0,0-1.89-.2,7.6,7.6,0,0,0-2.07.42.71.71,0,0,0,.29,1.23c1.2.28,4.25.69,4.9.89.9.27,1.29,1.33,3.82,2.12a7.46,7.46,0,0,0,3.88-.37l2.28,2.29a.3.3,0,0,0,.42-.11l2.39-4.23A.31.31,0,0,0,216.45,71.16Z"></path><path class="cls-8" d="M197.62,76.77l1.36.3a1.1,1.1,0,0,0,1.34-.84l.68-3a1.14,1.14,0,0,0-.85-1.35l-1.37-.3a1.12,1.12,0,0,0-1.34.85l-.67,3A1.12,1.12,0,0,0,197.62,76.77Z"></path><path class="cls-3" d="M199.89,69.42s-.19-.08-.48,0a1.4,1.4,0,0,0-1,.63,1.61,1.61,0,0,0-.18,1.15c.07.29.19.43.23.42s0-.19,0-.45a1.79,1.79,0,0,1,.23-1,1.58,1.58,0,0,1,.77-.59C199.72,69.52,199.89,69.48,199.89,69.42Z"></path><path class="cls-3" d="M199.47,72.14c0,.08.4.32,1,.08a.79.79,0,0,0,.43-.59c0-.19,0-.29-.07-.3s-.13.43-.5.61S199.49,72.05,199.47,72.14Z"></path><path class="cls-3" d="M197.64,76.78s-.07,0-.14-.17a.76.76,0,0,1,0-.57c.17-.66.33-1.28.51-2s.32-1.31.49-2a.55.55,0,0,1,.32-.46.39.39,0,0,1,.21,0s-.07-.08-.22,0a.58.58,0,0,0-.4.47c-.14.5-.33,1.19-.52,2s-.37,1.46-.48,2a.8.8,0,0,0,.08.62A.35.35,0,0,0,197.64,76.78Z"></path><path class="cls-3" d="M198.15,73.24a7.81,7.81,0,0,0,1.3.44,8.26,8.26,0,0,0,1.33.31,6.11,6.11,0,0,0-1.3-.44A7.15,7.15,0,0,0,198.15,73.24Z"></path><path class="cls-3" d="M197.78,74.85a7.6,7.6,0,0,0,1.24.43,6.47,6.47,0,0,0,1.27.29,7.93,7.93,0,0,0-1.24-.42A6.81,6.81,0,0,0,197.78,74.85Z"></path><path class="cls-2" d="M197.31,76.69a.75.75,0,0,1-.22-.76c.11-.52.89-3.68.89-3.68l-.46-.13-.8,3.51S196.58,76.53,197.31,76.69Z"></path><path class="cls-3" d="M258.11,203.79v.58s-9.85,4.06-9.94,5.94l19.64-.29-.37-6.53A11.2,11.2,0,0,1,258.11,203.79Z"></path><path class="cls-8" d="M267.8,210l-.08-1.56-18.79.85s-.86.39-.76,1Z"></path><path class="cls-11" d="M258,204.42c0,.11.48.14,1,.44s.74.7.82.66-.06-.59-.64-1S258,204.34,258,204.42Z"></path><path class="cls-11" d="M256,205.31c0,.09.39.25.72.65s.44.83.53.82.15-.55-.27-1S256,205.21,256,205.31Z"></path><path class="cls-11" d="M254.86,207.79c.09,0,.21-.46,0-1s-.7-.72-.74-.64.24.36.44.79S254.76,207.78,254.86,207.79Z"></path><path class="cls-3" d="M272.14,197.86l-8.35,2.34,2.08,4.75-2.16,12a1.36,1.36,0,0,0,.94,1.56,1.4,1.4,0,0,0,1.41-.41c1.84-2.07,8.59-9.71,8.43-10.64l-.27-2.5c-.06-.51-.55-1.74-.55-1.86Z"></path><path class="cls-8" d="M264.9,218.54l9.51-12,0,.56a1.47,1.47,0,0,1-.39,1.24c-.74,1.21-2.87,3.94-8,9.72A1.33,1.33,0,0,1,264.9,218.54Z"></path><path class="cls-11" d="M267.41,212.64a4.29,4.29,0,0,0-1.25-.9,4.38,4.38,0,0,0-1.55-.14s.14-.15.45-.22a2.15,2.15,0,0,1,1.2.1,2,2,0,0,1,1,.71C267.4,212.44,267.44,212.62,267.41,212.64Z"></path><path class="cls-11" d="M266.62,214.45a11.38,11.38,0,0,0-1.22-.44,11,11,0,0,0-1.31,0,1.57,1.57,0,0,1,1.37-.23C266.26,213.87,266.69,214.41,266.62,214.45Z"></path><path class="cls-11" d="M269,210.27a14.65,14.65,0,0,0-1.84-.81,15,15,0,0,0-2-.27,3.76,3.76,0,0,1,3.84,1.08Z"></path><path class="cls-8" d="M265.78,203.31a10.72,10.72,0,0,1,.09,1.62h0v0c-.1.68-.25,1.58-.42,2.54-.2,1.14-.39,2.18-.55,2.92a5.18,5.18,0,0,1-.3,1.19,6.6,6.6,0,0,1,.13-1.23c.11-.75.28-1.78.48-2.92.16-1,.33-1.85.47-2.54v0A8.61,8.61,0,0,1,265.78,203.31Z"></path><path class="cls-3" d="M277.67,126.08c.66-3.17,2.33-8.92,1.67-11.57-1.52-6.13-4.2-9.68-7.85-17.46h-2.71l-26.06-.46-2.13,4.73c-2.37,6.36-4,10.17-4.65,14.83-.77,5.37.58,13.15,3.56,21,6.44,16.95,10,30.51,10.28,34.16s.64,7.42,4,19c2.47,8.43,4.3,13.49,4.3,13.49,2.56,1.45,5.28,1.84,7.76.43l7.56-2.92s-2.31-19.91-5-25.19c-2-3.81-5.13-5.61-3.65-10.56S275.65,135.85,277.67,126.08Z"></path><path class="cls-8" d="M247.18,110l.1.13.29.4c.25.37.62.89,1.1,1.58l4.13,5.93v0c-.2,2.22-.27,4.81-.41,7.69s-.29,6-.45,9.44-.37,7-.57,10.84-.42,7.79-.8,11.89a48.88,48.88,0,0,0-.46,10c.08.8.17,1.59.32,2.37a15.07,15.07,0,0,0,.57,2.27c.54,1.44,1.16,2.84,1.76,4.2,2.4,5.45,4.66,10.31,6.53,14.4s3.41,7.38,4.47,9.68c.51,1.13.92,2,1.2,2.63.14.29.24.53.31.69l.1.24-.12-.23-.33-.68-1.25-2.61-4.54-9.64c-1.9-4.09-4.17-8.94-6.58-14.38-.6-1.36-1.22-2.75-1.78-4.22a16.24,16.24,0,0,1-.57-2.31,20.82,20.82,0,0,1-.33-2.39,48.45,48.45,0,0,1,.45-10c.38-4.09.57-8.08.81-11.88s.4-7.44.58-10.84.34-6.57.49-9.44.24-5.47.45-7.69l0,0-4.08-6-1.07-1.58-.27-.42C247.2,110.06,247.17,110,247.18,110Z"></path><path class="cls-18" d="M250.65,54.36l2.21-4,4.79,5.37L264.87,50l1.23,1.48,2.65,46.77s-9.24,1.86-13.85,1.21a54.45,54.45,0,0,1-10.05-2.75V70.06Z"></path><path class="cls-3" d="M265,56.25l-.07.09-.2.23c-.19.2-.46.49-.82.85a32.6,32.6,0,0,1-3.12,2.73l0,0,0,0a33.62,33.62,0,0,1-2.86-3.59l-.29-.4h.12c-.82,1.1-1.59,2.14-2.3,3.08a1.26,1.26,0,0,1-.32.33.62.62,0,0,1-.44.12.77.77,0,0,1-.38-.22,3.56,3.56,0,0,1-.26-.31L253.07,58l-1.29-1.64-.35-.45c-.08-.1-.12-.16-.11-.16s.05,0,.13.14l.37.44L253.15,58l.92,1.12c.16.19.33.44.57.48s.47-.18.64-.4l2.28-3.1.06-.07.06.08.28.41a36.82,36.82,0,0,0,2.84,3.57h-.09a37.61,37.61,0,0,0,3.15-2.68l.84-.82a2,2,0,0,1,.22-.21Z"></path><path class="cls-19" d="M261.14,60.59h0l.09,0c.85-.27,3.87-3.3,3.87-3.3h0c0-.48,0-.87.05-1.16v0l-3.8,3.46c1.05-.84,1.89-1.6,2.5-2.18.37-.34.65-.63.84-.82s.16-.15.22-.22l.08-.07-.07.09c-.05.06-.12.13-.2.24l-.82.84a35.49,35.49,0,0,1-3.12,2.73l-.05,0,0,0a34.48,34.48,0,0,1-2.87-3.58l-.22-.33-2.24,3a1.3,1.3,0,0,1-.31.31.55.55,0,0,1-.37.14h-.08a.19.19,0,0,1-.1,0h-.05c.32.33.77.75,1,.75a.14.14,0,0,0,.14-.06c.26-.27,1.3-1.86,1.91-2.71q0-.33,0-.57a2.71,2.71,0,0,1,0-.45,4,4,0,0,1,0,.45v.46a2.48,2.48,0,0,1,.36-.44h0a11.16,11.16,0,0,1,1.32,1.76c.64.88,1.36,1.76,1.81,1.76Zm-6-1.3.29-.37-.18.24a.69.69,0,0,1-.11.13Zm4.8-.19c-.49-.59-1-1.24-1.51-1.92Z"></path><path class="cls-20" d="M260.74,60.18l0,0a35.84,35.84,0,0,1-2.86-3.58l-.22-.33-2.24,3a1.23,1.23,0,0,1-.31.33.65.65,0,0,1-.37.12h-.08a.19.19,0,0,1-.1,0l.1,0a.69.69,0,0,0,.37-.13l.18-.25a.69.69,0,0,0,.11-.13l.17-.24,2.17-2.81.84,1.07c.5.68,1,1.33,1.51,1.92l.78,1,.61-.54c1.05-.84,1.89-1.61,2.5-2.19.37-.34.65-.62.84-.82l.22-.22.08-.07-.07.09-.21.23q-.27.3-.81.84a32.47,32.47,0,0,1-3.12,2.74Z"></path><path class="cls-19" d="M254.47,59.63a.46.46,0,0,1-.21-.15.72.72,0,0,0,.2.14Z"></path><path class="cls-20" d="M254.46,59.62a.72.72,0,0,1-.2-.14.81.81,0,0,1-.15-.26Z"></path><path class="cls-3" d="M256.13,99.69a3,3,0,0,1,0-.44c0-.31,0-.72.05-1.25,0-1.12.11-2.69.18-4.62.17-3.89.39-9.28.59-15.23s.36-11.34.47-15.23c0-1.94.1-3.51.13-4.62,0-.53,0-.95,0-1.26a3,3,0,0,1,0-.43,2.06,2.06,0,0,1,0,.43V58.3c0,1.11,0,2.69,0,4.62-.06,3.9-.18,9.29-.39,15.24s-.46,11.34-.67,15.23c-.11,1.93-.2,3.5-.27,4.61q-.06.8-.09,1.26A3.83,3.83,0,0,1,256.13,99.69Z"></path><path class="cls-20" d="M243.83,117.55a.94.94,0,0,1-.72-.3l-.39-3.56,2.58-16.87c.47.18,1.32.48,2.38.82a176.07,176.07,0,0,1-2.12,17.6,3.54,3.54,0,0,1-.69,1.85A1.47,1.47,0,0,1,243.83,117.55Z"></path><path class="cls-19" d="M247.68,97.65c-1.06-.35-1.9-.65-2.39-.83q1.23-8,2.44-16A126,126,0,0,1,247.68,97.65Z"></path><path class="cls-12" d="M240.68,54.48c-1.83.57-2.67,1.76-3.88,4l-8.91,17.41s-12.42-6.2-12.45-6.06l-4.6,6.94,14.56,9a7.5,7.5,0,0,0,10.06-2l4.58-6.5,3.82-23.32Z"></path><path class="cls-12" d="M247.58,53.13l-5.66,1.11-2,21.07.72,14.59c0,.36,0,.57,0,.57l-9.77,21.85c2.19,3.9,8.09,5.72,12.26,6.71,0,0,4.21-29.87,4.48-36.45S252.43,51,252.43,51Z"></path><path class="cls-3" d="M232.13,109.87a.55.55,0,0,1,0-.1l.12-.29.47-1.1c.43-1,1-2.35,1.79-4.09,1.53-3.48,3.67-8.33,6.09-13.85v0c0-1.49-.1-3-.17-4.61-.17-3.56-.36-7-.49-10s-.21-5.87-.24-8.21,0-4.23,0-5.54c0-.64,0-1.15,0-1.5,0-.17,0-.3,0-.39a.79.79,0,0,1,0-.14v.14c0,.09,0,.22,0,.39,0,.35,0,.86,0,1.51,0,1.3,0,3.19,0,5.53s.13,5.12.27,8.2.32,6.48.49,10c.08,1.57.14,3.12.18,4.61h0v0c-2.45,5.51-4.6,10.35-6.14,13.83l-1.82,4.07c-.22.47-.38.84-.5,1.09s-.1.21-.13.29Z"></path><path class="cls-3" d="M247.37,79.32l0-.08a1.65,1.65,0,0,1,0-.21c-.05-.19-.11-.46-.19-.8-.14-.71-.36-1.74-.55-3s-.38-2.8-.53-4.51-.27-3.57-.36-5.54q0-1.09-.09-2.16c0-.35,0-.7-.05-1l0-.52V61l0,0,.08,0,0,0-.09,0c.52-.37,1-.72,1.51-1.05V60l-1.64-.77-.05,0,0,0c.24-.93.54-1.76.8-2.5s.5-1.36.7-1.88l.48-1.21a2.7,2.7,0,0,0,.13-.3l.06-.11a.82.82,0,0,1,0,.11l-.11.32L247,54.77c-.2.52-.43,1.16-.68,1.89s-.54,1.57-.78,2.5l0-.07,1.65.77.09,0-.08.07L245.63,61l-.09,0,0,0h0l0,0h0v.43c0,.17,0,.34,0,.51,0,.34,0,.69.05,1,0,.71.07,1.43.1,2.16.1,2,.21,3.84.35,5.54s.32,3.23.5,4.51.37,2.3.51,3c.06.35.12.62.16.82s0,.15,0,.21Z"></path><path class="cls-12" d="M275.81,93.22l3.6-36.39-10.13-3.72a25.32,25.32,0,0,1-3.7-2.47l-.39,4.87s-1.37,23.36.79,35.12,1.85,11.36,3.43,19c1.15,5.57,1.34,10.43,3.07,10.91s10.49-2.7,10.49-2.7Z"></path><path class="cls-12" d="M279.41,56.83a7.3,7.3,0,0,1,3.53,5.79c.4,3.78,1.07,26.94,1,28.81s-1.7,7.15-4.59,7.34c-4.57.28-5.82-3.24-5.82-3.24l1.22-11.84Z"></path><path class="cls-3" d="M267.79,78.07V78a1.78,1.78,0,0,0,0-.2c0-.19.1-.44.16-.78.12-.66.31-1.64.48-2.85.36-2.42.67-5.78.85-9.51,0-.88.08-1.74.12-2.57,0-.41,0-.82.05-1.22,0-.21,0-.4,0-.6v-.51h0l0,0,0,0h0l-.1,0c-.52-.38-1-.73-1.51-1.06l-.08-.07.09,0,1.65-.76,0,.06a17.78,17.78,0,0,1-.33-2c-.08-.59-.15-1.1-.24-1.52s-.17-.72-.23-.94l-.08-.25,0-.08,0,.08.1.23a9.44,9.44,0,0,1,.26.95c.09.42.18.93.26,1.52s.18,1.27.36,2v0l0,0-1.65.77v-.11l1.52,1.06-.09,0v0l.05,0,.05,0V60c0,.09,0,.2,0,.29l0,.59c0,.41,0,.81-.05,1.23,0,.83-.08,1.69-.12,2.56a94.25,94.25,0,0,1-.89,9.53c-.19,1.21-.39,2.17-.53,2.85-.07.33-.13.58-.18.76a1.13,1.13,0,0,1-.05.2Z"></path><path class="cls-19" d="M254.59,98.32a5.66,5.66,0,0,1-.87,0c-1.29-.23-1-.91-.87-1.12l3.36-.17c0,.36,0,.7,0,1,0,.1,0,.2,0,.28-.62,0-1.16,0-1.57,0Zm1.66,0c0-.08,0-.18,0-.27,0-.31,0-.66.06-1L267,96.42c.08.44.15.84.21,1.23C263.66,97.89,259.09,98.19,256.25,98.28Z"></path><path class="cls-20" d="M256.16,98.28a2.72,2.72,0,0,1,0-.28c0-.31,0-.64,0-1h.12c0,.39,0,.72-.06,1,0,.1,0,.19,0,.28Z"></path><path class="cls-21" d="M275.75,99.18l-3.27-1.9-5.25.37c-.07-.39-.13-.79-.21-1.23l4.6-.24a1,1,0,0,0,.94-.92l0-.37,1.35,1.44a5.49,5.49,0,0,0,1.24,1.33l.14.15Z"></path><path class="cls-21" d="M275.18,97.65a5.13,5.13,0,0,1-1.24-1.32Z"></path><path class="cls-3" d="M273.6,68.44l-21.7,1.11a1,1,0,0,0-.94.93l-1.45,25.75a1,1,0,0,0,1.05,1l21.06-1.1a1,1,0,0,0,.95-.91l2.08-25.75A1,1,0,0,0,273.6,68.44Z"></path><path class="cls-3" d="M278.16,62.79s0,.08,0,.24l-.12.65c-.12.58-.28,1.4-.48,2.42-.39,2-.91,4.86-1.41,8s-.87,6-1.12,8c-.13,1-.23,1.85-.3,2.44,0,.28-.06.5-.08.67a.89.89,0,0,1,0,.23s0-.08,0-.24,0-.38.06-.66c.05-.58.13-1.42.25-2.45.23-2.06.58-4.92,1.08-8.05s1-6,1.45-8c.21-1,.39-1.84.52-2.41l.16-.65A.79.79,0,0,1,278.16,62.79Z"></path><path class="cls-16" d="M274.05,85.29s1.25.08,2.35,1.92l2.12,1.35a5.39,5.39,0,0,1,0,5.62,2.5,2.5,0,0,1-4.09.41s-2.23,1.11-2.86.91a43,43,0,0,1-5.48-3c-.18-.15-1.54-1.72-1.54-1.72s-1.89-.4-2.11-.83-.23-1.43,1-1.34c0,0-1.24-.37-1.38-1s0-1.43,2.19-1.12,6.41,1.48,6.9,1.36a.3.3,0,0,0-.05-.55c-.16-.07-5.11-2-5.91-2.22s-1-2.15.79-1.7,7.57,1.85,7.57,1.85Z"></path><path class="cls-17" d="M270.78,92.65a8.57,8.57,0,0,1-.92-.28l-2.21-.68c-.87-.25-1.65-.47-2.23-.61a6.54,6.54,0,0,1-.93-.26.82.82,0,0,1,.26,0c.16,0,.4.07.69.13.58.13,1.38.32,2.25.57s1.65.52,2.2.73a6.2,6.2,0,0,1,.66.27C270.7,92.6,270.79,92.64,270.78,92.65Z"></path><path class="cls-17" d="M271.49,90.35a1.53,1.53,0,0,1-.32,0l-.88-.12c-.74-.11-1.76-.28-2.87-.52s-2.12-.5-2.84-.7l-.85-.25c-.2-.07-.31-.1-.3-.12a2,2,0,0,1,.32.07l.85.21c.73.17,1.73.41,2.84.65s2.13.43,2.86.57l.88.16Z"></path><path class="cls-17" d="M277.51,89.86v.22a3.6,3.6,0,0,1-.08.62,5.5,5.5,0,0,1-.79,1.88,5.27,5.27,0,0,1-1.42,1.47,4.63,4.63,0,0,1-.53.32.68.68,0,0,1-.21.08s.27-.17.68-.48a6.09,6.09,0,0,0,1.36-1.46,6.39,6.39,0,0,0,.81-1.84C277.46,90.18,277.48,89.85,277.51,89.86Z"></path><path class="cls-3" d="M278.21,94.89s.27-.3.6-.85a5.08,5.08,0,0,0,.69-2.37,5,5,0,0,0-.54-2.4c-.3-.57-.57-.87-.55-.89a.94.94,0,0,1,.2.2,6.29,6.29,0,0,1,.43.64,4.72,4.72,0,0,1,.6,2.46,4.78,4.78,0,0,1-.75,2.42,3.17,3.17,0,0,1-.48.6A1,1,0,0,1,278.21,94.89Z"></path><path class="cls-3" d="M283.1,85.65s-.36-.24-1-.53A6,6,0,0,0,281,84.7a7.41,7.41,0,0,0-1.43-.27,7.61,7.61,0,0,0-1.45,0,6.2,6.2,0,0,0-1.17.26c-.65.2-1,.41-1,.38s.08-.07.25-.16l.31-.15.44-.18a8.49,8.49,0,0,1,1.18-.29,8,8,0,0,1,1.48,0,7,7,0,0,1,1.46.27,7.32,7.32,0,0,1,1.13.46c.15.07.28.16.4.23s.21.14.28.2A1.18,1.18,0,0,1,283.1,85.65Z"></path><path class="cls-21" d="M269.25,68c.08-1.07.15-2.19.21-3.35,0-.88.08-1.74.12-2.57,0-.42,0-.82.05-1.23l0-.59a2.81,2.81,0,0,1,0-.29v-.32l-.05,0h0l-1.4-1c.54-.24,1.06-.5,1.55-.72l0,0v0c-.18-.72-.27-1.39-.36-2s-.17-1.1-.26-1.52c-.05-.23-.11-.44-.15-.61.33.81,1.72,4.13,1.5,4.44a2.92,2.92,0,0,1-1.22.61s1.58.68,1.57,1.28c0,1-1.22,6.37-1.59,7.92Zm.34-8.23,0,0h0Zm-.33-4.3c-.06-.42-.11-.78-.18-1.09a5.34,5.34,0,0,0-.13-.59Z"></path><path class="cls-20" d="M269.15,68.43l.42-8.66h.06l-.06,0v-.05l-1.51-1.06,1.64-.76-.44-2.42c-.06-.42-.11-.79-.18-1.09S269,54,269,53.8l0-.22.08.18c0,.17.1.37.15.61.09.42.17.93.26,1.52s.18,1.27.36,2v0l0,0-1.55.72,1.39,1h.06V60a2.81,2.81,0,0,1,0,.29c0,.19,0,.39,0,.6,0,.4,0,.8-.05,1.22,0,.83-.08,1.69-.12,2.57-.06,1.15-.13,2.28-.21,3.35C269.19,68.28,269.15,68.43,269.15,68.43Z"></path><path class="cls-8" d="M258.32,69.22c-.08.25.19-2.16.19-2.16l10.23-.44-.29,2.08Z"></path><path class="cls-22" d="M199.2,80.4c-.45.92-.81,1.72-.86,1.85l-.49-3.54s-1.07-.07-1.22,1.25-.38,2.42-.38,2.42l-.55.12-1.35.11-3.7-2,1.13,2.9s2.08.72,2.25.76,5.95-.91,5.95-.91,1.26-4,1.26-4S199.69,79.39,199.2,80.4Z"></path><path class="cls-8" d="M125.48,137.67s1.57-14.35,4.93-15.94,8-2.65,9.28-.51a25.74,25.74,0,0,1,3.1,8.82,54.26,54.26,0,0,1,.22,8.68l-3.83-.42s.18-14.3-1-16.42-7.06-.41-7.71,2.14-2.06,14-2.06,14Z"></path><path class="cls-8" d="M112.15,157.89c.18-5.92.75-19,1-24.7a2.91,2.91,0,0,1,2.93-2.79l35.18.21a2.93,2.93,0,0,1,2.9,2.83l.69,24.31a2.92,2.92,0,0,1-2.9,3l-36.87.15A2.91,2.91,0,0,1,112.15,157.89Z"></path><path class="cls-3" d="M112.15,157.89a3.41,3.41,0,0,0,.32,1.35,2.93,2.93,0,0,0,1.15,1.22,3.18,3.18,0,0,0,1,.35,8.35,8.35,0,0,0,.88,0h.36l14.94-.11,10.31-.06,5.74,0,3,0h1.66a3.4,3.4,0,0,0,1.35-.18,2.77,2.77,0,0,0,1.8-2.23,13.93,13.93,0,0,0,0-1.58c0-.54,0-1.08,0-1.63-.06-2.18-.12-4.41-.19-6.67-.13-4.53-.26-9.23-.4-14a5.08,5.08,0,0,0-.2-1.73,2.75,2.75,0,0,0-1-1.32,2.88,2.88,0,0,0-1.59-.48h-1.76l-6.92,0-13.09-.09c-4.17,0-8.12-.06-11.83-.07l-1.38,0a2.87,2.87,0,0,0-1.27.22,2.79,2.79,0,0,0-1.6,1.84,5.64,5.64,0,0,0-.13,1.25c0,.42,0,.83,0,1.25,0,.82-.07,1.63-.1,2.42-.28,6.29-.49,11.38-.65,14.91-.09,1.75-.15,3.12-.19,4.06q0,.68-.06,1.05l0,.36a3.24,3.24,0,0,1,0-.36c0-.25,0-.6,0-1.05,0-.94.08-2.31.14-4.07.14-3.53.32-8.62.56-14.92,0-.78.06-1.59.09-2.41,0-.42,0-.83.05-1.25a5.69,5.69,0,0,1,.12-1.29,3.07,3.07,0,0,1,1.73-2,3.2,3.2,0,0,1,1.37-.24h1.38l11.83.06,13.09.06,6.92.05h1.76a3,3,0,0,1,2.9,2,3,3,0,0,1,.19.94l0,.9c.13,4.8.27,9.5.4,14,.06,2.26.12,4.49.18,6.67,0,.55,0,1.09.05,1.63a14.77,14.77,0,0,1,0,1.63,3,3,0,0,1-2,2.45,4.13,4.13,0,0,1-1.58.19h-4.54l-5.74,0-10.31,0h-15.3a5.14,5.14,0,0,1-.89,0,3,3,0,0,1-1-.36,2.92,2.92,0,0,1-1.16-1.27,3,3,0,0,1-.28-1A2,2,0,0,1,112.15,157.89Z"></path><path class="cls-3" d="M151.71,139.53s0,.09,0,.26v.78c0,.71,0,1.73,0,3,0,2.66,0,6.49-.07,11.22v.9a1.75,1.75,0,0,1-.21.94,1.64,1.64,0,0,1-.72.66,2.09,2.09,0,0,1-1,.14h-4l-8.88,0-9.8,0h-8.68a1.94,1.94,0,0,1-.53,0,1.57,1.57,0,0,1-1.1-.89,1.61,1.61,0,0,1-.15-.61c0-.21,0-.39,0-.58l0-1.16c0-.77,0-1.53,0-2.28,0-1.51.07-3,.1-4.48.06-2.94.13-5.79.18-8.5v-.13h.13c10.11.62,18.78.79,24.92.81,3.06,0,5.51,0,7.17,0h2.4l-.5,0-1.9.06c-1.66,0-4.1.08-7.17.08-6.14,0-14.82-.12-24.94-.71l.13-.12c0,2.71-.11,5.56-.17,8.5,0,1.46-.06,3-.09,4.47,0,.76,0,1.52-.05,2.29,0,.38,0,.77,0,1.15a2.26,2.26,0,0,0,.11,1.08,1.39,1.39,0,0,0,.92.75,2.48,2.48,0,0,0,.48,0h3.49l5.19,0,9.8,0,8.88,0,4,0a1.86,1.86,0,0,0,.89-.12,1.42,1.42,0,0,0,.64-.57,1.54,1.54,0,0,0,.19-.85c0-.3,0-.6,0-.89.07-4.71.13-8.52.17-11.17,0-1.32,0-2.35.05-3.06,0-.34,0-.61,0-.8S151.71,139.53,151.71,139.53Z"></path><path class="cls-3" d="M141.6,155.14s.22,0,.62-.08a3,3,0,0,0,1.52-.84,3.21,3.21,0,0,0,.86-2.56c0-1.11,0-2.36,0-3.75,0-.7,0-1.42,0-2.18a3.06,3.06,0,0,0-.62-2.15,2.93,2.93,0,0,0-2.09-1.12c-.86,0-1.76,0-2.68,0-3.67,0-7.71-.06-11.95-.11a3,3,0,0,0-2.51,1.41,2.83,2.83,0,0,0-.42,1.39c0,.51,0,1,0,1.51q0,1.5,0,2.94c0,.48,0,1,0,1.43a12.31,12.31,0,0,0,0,1.37,2.93,2.93,0,0,0,1.36,2.09,3.1,3.1,0,0,0,1.16.41c.4,0,.83,0,1.23,0l4.55.06,6.58.1,1.79,0,.46,0h.16s0,0-.16,0h-2.25l-6.58,0-4.55,0c-.41,0-.81,0-1.26,0a3.38,3.38,0,0,1-1.25-.43,3.19,3.19,0,0,1-1.49-2.25c0-.49,0-.94,0-1.41s0-.95,0-1.43c0-1,0-1.94,0-3,0-.5,0-1,0-1.51a3.07,3.07,0,0,1,.46-1.52,3.16,3.16,0,0,1,2.73-1.52l11.95.11c.92,0,1.81,0,2.7.05a3.12,3.12,0,0,1,2.24,1.2,3.36,3.36,0,0,1,.66,2.29c0,.76,0,1.48,0,2.18q0,2.09-.06,3.75a7,7,0,0,1,0,.8,2.86,2.86,0,0,1-.18.74,3.1,3.1,0,0,1-.72,1.09,3,3,0,0,1-1.58.82A2,2,0,0,1,141.6,155.14Z"></path><path class="cls-23" d="M133.89,159.64a55.94,55.94,0,0,1-15.7-2.23H127l9.82,0h12.52A56.14,56.14,0,0,1,133.89,159.64Z"></path><path class="cls-20" d="M149.35,157.47H145.7l-8.88,0-9.8,0h-8.83l-.54-.16,32.22.07Z"></path><path class="cls-2" d="M137.75,146.09l-4.47,0a1,1,0,0,1-1-1v-.31a1,1,0,0,1,1-1l4.46.05a1,1,0,0,1,1,1v.31A1,1,0,0,1,137.75,146.09Z"></path><path class="cls-16" d="M137.41,115.76a10.6,10.6,0,0,1,1.6,1.78,28.87,28.87,0,0,1,1.15,3.9s-.59.52-1.63-1.14a15.64,15.64,0,0,1-1.36-2.51Z"></path><path class="cls-16" d="M132.23,109.47l1.4,2.46,3.85,3.9,1.44,5.76a2.6,2.6,0,0,1-.19,1.82.92.92,0,0,1-.39.43c-.43.18-1.65-.44-1.65-.44s-.89,1.1-1.84.45c0,0-1.36.7-2.12,0,0,0-.87.69-1.52.26a21.75,21.75,0,0,1-2.49-3.13l-2.48-8.89Z"></path><path class="cls-24" d="M186.24,85.77l8.87.87s7.37-2.71,8.21-3.06a.69.69,0,0,0,.39-.4.85.85,0,0,0-.94-1.08l-8.25,1.21a1.72,1.72,0,0,1-1.37-.44l-2.87-2.58s1.58-1,2.61-1.82a1.58,1.58,0,0,0,.61-1.83c-1.08-.06-7.16,2.8-7.16,2.8l-2.55,1.27Z"></path><path class="cls-3" d="M155.63,12.84a2.7,2.7,0,0,0,2.78-2.09,2.68,2.68,0,0,0-1.8-3A2.76,2.76,0,0,0,157,4.66a2.75,2.75,0,0,0-2.84-1.37A3.23,3.23,0,0,0,149.24.76a3.63,3.63,0,0,0-4.47,0,2.63,2.63,0,0,0-2.72,1.4,2.66,2.66,0,0,0,.55,3Z"></path><path class="cls-24" d="M156,17.31a11,11,0,0,0-11.17-9.86h-.57c-6.12.48-9.13,6-8.47,12.07l.55,21.88,10.54,11.38,4.45-7.27-.05-7.26s5.87-1,5.82-6.94C157.08,28.47,156.55,22.61,156,17.31Z"></path><path class="cls-22" d="M151.34,38.25a14.39,14.39,0,0,1-7.78-2.1s1.82,4.32,7.69,3.66Z"></path><path class="cls-3" d="M154.58,18.59a.85.85,0,0,1-.8.87.81.81,0,0,1-.88-.75.83.83,0,0,1,.8-.86A.8.8,0,0,1,154.58,18.59Z"></path><path class="cls-3" d="M154.8,16.1c-.1.12-.75-.34-1.65-.32s-1.56.49-1.66.38,0-.25.33-.47a2.46,2.46,0,0,1,1.33-.44,2.25,2.25,0,0,1,1.32.4C154.75,15.86,154.85,16.06,154.8,16.1Z"></path><path class="cls-3" d="M146.33,18.93a.83.83,0,0,1-.79.87.8.8,0,0,1-.88-.74.83.83,0,0,1,.79-.86A.79.79,0,0,1,146.33,18.93Z"></path><path class="cls-3" d="M145.9,16.46c-.1.12-.75-.34-1.66-.32s-1.55.49-1.66.39.06-.26.34-.48a2.35,2.35,0,0,1,1.33-.44,2.27,2.27,0,0,1,1.32.4C145.85,16.22,146,16.42,145.9,16.46Z"></path><path class="cls-3" d="M149.34,22.45a6.53,6.53,0,0,1,1.46-.27c.23,0,.45-.07.49-.22s-.06-.38-.17-.62c-.23-.51-.47-1-.72-1.6a25.22,25.22,0,0,1-1.64-4.17,26.85,26.85,0,0,1,2,4.05l.69,1.6a1.16,1.16,0,0,1,.14.83.55.55,0,0,1-.37.3,1.24,1.24,0,0,1-.39.07A5.75,5.75,0,0,1,149.34,22.45Z"></path><path class="cls-3" d="M146.11,13.38c-.11.23-.89,0-1.85,0s-1.76.16-1.85-.08.12-.32.46-.51a2.93,2.93,0,0,1,1.43-.33,2.8,2.8,0,0,1,1.4.4C146,13.05,146.16,13.27,146.11,13.38Z"></path><path class="cls-3" d="M154.84,12.9c-.18.21-.93,0-1.84,0s-1.65.17-1.83,0,0-.31.36-.51a3.06,3.06,0,0,1,3,0C154.82,12.59,154.93,12.8,154.84,12.9Z"></path><path class="cls-24" d="M136.87,21.13a1.59,1.59,0,0,0-1.76-1.5c-1.09.13-2.3.78-2.18,3.05.21,4,4.21,3,4.22,2.86S137,22.82,136.87,21.13Z"></path><path class="cls-22" d="M136.18,24.07s-.06.06-.18.12a.68.68,0,0,1-.52,0,1.73,1.73,0,0,1-.89-1.51,2.36,2.36,0,0,1,.14-1,.83.83,0,0,1,.5-.57.37.37,0,0,1,.43.17c.05.11,0,.19.06.2s.08-.08,0-.24a.47.47,0,0,0-.17-.24.58.58,0,0,0-.4-.08,1,1,0,0,0-.7.66,2.35,2.35,0,0,0-.18,1.14,1.83,1.83,0,0,0,1.12,1.68.75.75,0,0,0,.63-.14C136.18,24.18,136.2,24.08,136.18,24.07Z"></path><path class="cls-3" d="M152.48,9a2,2,0,0,0-.15-.29,2.58,2.58,0,0,0-2-1.09,10,10,0,0,0-1.42-.57,3.51,3.51,0,0,0-6-.12l-.49.09A3.6,3.6,0,0,0,137,8.68a2.6,2.6,0,0,0-2.85,3.85,2.49,2.49,0,0,0-1.32,2A1.45,1.45,0,0,0,134.32,16a54.38,54.38,0,0,0,.3,6.2c.11,1.41,1.92,2.22,2.07,3.17a6.69,6.69,0,0,0,.49,2c.58,3.22,2.89,8.53,11.18,10.72,5.35,1.41,8.65-2.28,8.65-5.37s-4.35-5.57-8.61-5.57c-12.32,0-9.41-.33-9-9.72l.3-.27c.21-.19.25-.44.43-.66s.62-.19,1-.16a2.58,2.58,0,0,0,2.64-1.9,1.08,1.08,0,0,0,1.44.1,5.65,5.65,0,0,0,1.08-1.2,1.66,1.66,0,0,1,1.36-.72,4.68,4.68,0,0,0,.89.18c.52-.06.77-.69.84-1.21a2.5,2.5,0,0,1,.38-1.27,2.83,2.83,0,0,1,1-.32,5.78,5.78,0,0,1,.6.08h.28l.37.13c1.8.83,3.44,4.49,3.44,4.49A7.06,7.06,0,0,0,152.48,9Zm-4.81,18.75h1.12a2.67,2.67,0,1,1,0,5.34h-1.12a2.67,2.67,0,1,1,0-5.34Z"></path><path class="cls-8" d="M133.63,8.64l0-.07a1.41,1.41,0,0,1,.14-.16,2.1,2.1,0,0,1,.61-.47,2.68,2.68,0,0,1,1.19-.28,2.36,2.36,0,0,1,1.51.53l-.11,0a3.2,3.2,0,0,1,1.62-2.06,3.88,3.88,0,0,1,1.44-.47,5.09,5.09,0,0,1,1.6.07A8.46,8.46,0,0,1,144.38,7l-.12,0A3.65,3.65,0,0,1,146,5.08a3.4,3.4,0,0,1,2.06-.29,3.58,3.58,0,0,1,1.29.49,1.69,1.69,0,0,1,.29.21l.09.08s-.14-.1-.41-.26a3.66,3.66,0,0,0-1.27-.42,3.32,3.32,0,0,0-2,.31,3.53,3.53,0,0,0-1.69,1.88l0,.09-.09,0a8,8,0,0,0-2.67-1.18,4.72,4.72,0,0,0-1.54-.07,3.55,3.55,0,0,0-1.38.44,3.06,3.06,0,0,0-1.57,1.94l0,.11L137,8.29a2.26,2.26,0,0,0-1.42-.53,2.77,2.77,0,0,0-1.16.25A2.64,2.64,0,0,0,133.63,8.64Z"></path><path class="cls-8" d="M149.71,5.84s0,.06-.06.16a2.75,2.75,0,0,0-.14.47c0,.21-.1.47-.16.77a2.51,2.51,0,0,1-.37,1,.91.91,0,0,1-.56.32,2.66,2.66,0,0,1-.69,0,1.43,1.43,0,0,0-.68.06,1.72,1.72,0,0,0-.58.47,6.82,6.82,0,0,0-.51.64,3,3,0,0,1-.59.66,2.06,2.06,0,0,1-.88.31,2,2,0,0,1-.49,0,.78.78,0,0,1-.44-.28l.15,0a2.54,2.54,0,0,1-.25.68,2.65,2.65,0,0,1-.48.58,2.85,2.85,0,0,1-1.4.63,4.64,4.64,0,0,1-.64,0,1.45,1.45,0,0,0-.59,0,.84.84,0,0,0-.42.35,3.14,3.14,0,0,1-.41.47,3.15,3.15,0,0,1-2.05,1,2.89,2.89,0,0,1-1.91-.76,3,3,0,0,1-.91-1.52l.06,0a1.63,1.63,0,0,1-1.31-.27,1.47,1.47,0,0,1-.54-.87,1.42,1.42,0,0,1,0-.65.75.75,0,0,1,0-.15l0-.06a1.85,1.85,0,0,0,0,.84,1.49,1.49,0,0,0,.54.81,1.52,1.52,0,0,0,1.24.24h.05l0,0a2.9,2.9,0,0,0,.89,1.44,2.75,2.75,0,0,0,1.82.72,3,3,0,0,0,1.94-1c.13-.14.27-.29.39-.44a1,1,0,0,1,.5-.41.76.76,0,0,1,.33,0l.31,0a3.08,3.08,0,0,0,.61,0,2.48,2.48,0,0,0,1.33-.59,2.26,2.26,0,0,0,.44-.53,2.18,2.18,0,0,0,.23-.63l0-.19.1.15a.79.79,0,0,0,.77.24,1.82,1.82,0,0,0,.81-.28,2.41,2.41,0,0,0,.56-.63c.18-.21.34-.43.53-.63a1.91,1.91,0,0,1,.63-.5,1.59,1.59,0,0,1,.74-.07,2.54,2.54,0,0,0,.66,0,.7.7,0,0,0,.5-.26,2.35,2.35,0,0,0,.37-.95c.07-.3.12-.56.18-.78a2.72,2.72,0,0,1,.17-.46Z"></path><path class="cls-22" d="M146.55,24.75a2.2,2.2,0,0,0,.9,2.71,1.43,1.43,0,0,0,1.11.12,1.47,1.47,0,0,0,1-.83,3,3,0,0,0,.25-1.34C148.91,25.2,147.47,25,146.55,24.75Z"></path><path class="cls-3" d="M149.45,27s-.06.1-.24.24a1.7,1.7,0,0,1-.87.32,1.84,1.84,0,0,1-1.3-.41,2.09,2.09,0,0,1-.76-1.49,2.62,2.62,0,0,1,.1-.89l0-.08.07,0c.95.18,1.78.35,2.37.48a6.09,6.09,0,0,1,.94.23,6,6,0,0,1-1-.13c-.6-.1-1.43-.24-2.38-.42l.09-.06a2.55,2.55,0,0,0-.08.83,2,2,0,0,0,.69,1.39,1.72,1.72,0,0,0,1.2.41,1.81,1.81,0,0,0,.84-.26C149.35,27.1,149.44,27,149.45,27Z"></path><path class="cls-3" d="M144.33,191.15l-.57,13.14s13.16,5,13.29,7.43l-25.51-.2.05-20.5Z"></path><path class="cls-8" d="M131.54,211.52l.09-2.07,24.42,1s1.14.51,1,1.31Z"></path><path class="cls-3" d="M144.18,204.16c0,.12-.63.17-1.25.57s-.94.92-1.06.87.08-.77.83-1.24S144.21,204,144.18,204.16Z"></path><path class="cls-3" d="M146.84,205.29c0,.12-.51.32-.94.85s-.55,1.08-.67,1.07-.2-.71.34-1.35S146.84,205.17,146.84,205.29Z"></path><path class="cls-3" d="M148.34,208.5c-.11,0-.28-.6,0-1.28s.91-.94,1-.84-.32.46-.58,1S148.46,208.49,148.34,208.5Z"></path><path class="cls-3" d="M144,201.15c-.05.11-.62-.07-1.32,0s-1.26.26-1.32.15.47-.55,1.29-.59S144,201.05,144,201.15Z"></path><path class="cls-3" d="M144.3,201a19.55,19.55,0,0,1,0,3.16l-.1-.15c1.49.56,3.47,1.33,5.57,2.32a30.19,30.19,0,0,1,5.66,3.25,6.53,6.53,0,0,1,1.4,1.43c.25.41.22.73.19.71a1.71,1.71,0,0,0-.34-.62,7.21,7.21,0,0,0-1.44-1.28,37.55,37.55,0,0,0-5.65-3.1c-2.09-1-4-1.79-5.51-2.41l-.12-.05,0-.11A21.6,21.6,0,0,1,144.3,201Z"></path><path class="cls-3" d="M127.84,99.54l-2.55,14.95,6.25,35.11s-.49,17.7-1.41,27.76c-.79,8.74.51,24,.51,24h13.92l5-50.77,3.09-31.67,5.62-18.75Z"></path><path class="cls-3" d="M152.52,188.87l-3.64,12.63s11.62,8,11.16,10.35l-24.74-6.19,4.87-19.92Z"></path><path class="cls-8" d="M135.3,205.66l.57-2,23.51,6.68s1,.75.67,1.49Z"></path><path class="cls-8" d="M149.31,201.48c0,.11-.65,0-1.34.26s-1.14.67-1.24.6.26-.74,1.1-1S149.36,201.38,149.31,201.48Z"></path><path class="cls-8" d="M151.64,203.2c0,.12-.58.2-1.12.6s-.79.92-.91.89,0-.74.66-1.23S151.67,203.08,151.64,203.2Z"></path><path class="cls-8" d="M152.33,206.67c-.11,0-.13-.64.35-1.23s1.1-.7,1.13-.59-.41.38-.8.87S152.46,206.7,152.33,206.67Z"></path><path class="cls-3" d="M149.82,198.5c-.08.1-.59-.2-1.29-.32s-1.28-.05-1.32-.17.59-.42,1.4-.26S149.9,198.43,149.82,198.5Z"></path><path class="cls-3" d="M163.62,100.35l.64,6.48L164,152.14a16.53,16.53,0,0,1-.75,4.89l-10.78,34.59-2.67,9.16-14.23-2.67,11-97.74Z"></path><path class="cls-8" d="M163.19,157.21a1.79,1.79,0,0,1-.05.21c0,.14-.1.35-.18.62q-.26.83-.72,2.4l-2.73,9c-2.36,7.72-5.69,18.61-9.59,31.39l0,.09-.11,0-14.23-2.53-.13,0,0-.13c.72-3.63,1.48-7.43,2.25-11.3,2.3-11.47,4.47-22.3,6.36-31.75v0c-2.36-14-4.24-25.21-5.31-31.63h0c-1-1.79-1.83-3.16-2.38-4.1l-.6-1.06c-.14-.24-.2-.36-.2-.36s.08.11.22.35l.64,1c.55.92,1.36,2.3,2.42,4.07h0c1.11,6.42,3,17.59,5.44,31.61v0c-1.88,9.46-4,20.28-6.33,31.76-.77,3.86-1.53,7.67-2.26,11.3l-.1-.15,14.22,2.56-.14.07c3.94-12.75,7.3-23.64,9.69-31.35l2.79-9c.33-1,.59-1.83.76-2.38.08-.27.15-.48.2-.61A2,2,0,0,1,163.19,157.21Z"></path><path class="cls-12" d="M118.06,70.26s-2,11.63-.78,16.06S128,101.94,128,101.94l13.06-8.11-8.61-21.16Z"></path><path class="cls-12" d="M125.47,46.65s9,.27,9.1,8.84a155.92,155.92,0,0,1-1.61,20l-15.48-1.1s1-16,2.19-20.78A11.83,11.83,0,0,1,125.47,46.65Z"></path><path class="cls-11" d="M136.19,38.29l.05-1.61s13.43,3.76,15.39,5,.48,3.27.48,3.27Z"></path><path class="cls-12" d="M162.33,82.06l-4.72-35-4.75-2.95c-.87-1.41-2-1.93-3.79-2.54l-12.82-4.22-.83,3.2L124,47.43l4,37.92-3.64,31.81h6.79l2.51-7.41.75,7.41,31.13-.91Z"></path><path class="cls-12" d="M155.64,45.75s4.68,1.8,6.17,8.31c.5,2.17,4.65,23.19,4.65,23.19L185.68,79l1.61,9.91-21.06,1.39c-5.83.67-11.46-1.09-13-9.46,0-.2-.1-.4-.14-.6-1.56-7.37-3.65-17.67-3.93-21.2C148.73,53.89,149.89,47.1,155.64,45.75Z"></path><path class="cls-3" d="M146.09,87.53a1.78,1.78,0,0,1-.62.09l-1.7.08c-1.43.08-3.42.14-5.61.18s-4.17,0-5.61,0l-1.7,0a3.84,3.84,0,0,1-.62,0,2.87,2.87,0,0,1,.62-.07c.4,0,1-.06,1.7-.08,1.44,0,3.42-.06,5.61-.1s4.1-.07,5.61-.08h1.7A2.52,2.52,0,0,1,146.09,87.53Z"></path><path class="cls-3" d="M123,59.66s0,.05,0,.12,0,.23.09.39c.07.36.17.84.3,1.46.25,1.31.6,3.15,1,5.4.86,4.6,2,10.89,3.33,17.84.08.45.17.89.24,1.3v0c-.78,6.74-1.49,12.77-2,17.15-.27,2.16-.49,3.91-.64,5.16-.08.58-.14,1-.19,1.39a3.44,3.44,0,0,1-.09.48,3,3,0,0,1,0-.49c0-.34.08-.81.13-1.4.13-1.25.32-3,.55-5.16.49-4.39,1.16-10.43,1.91-17.16v0c-.07-.41-.15-.85-.23-1.29-1.27-7-2.42-13.26-3.25-17.86-.4-2.26-.72-4.11-1-5.42l-.24-1.47c0-.16,0-.28-.06-.39A1.16,1.16,0,0,1,123,59.66Z"></path><path class="cls-3" d="M153.07,44.22a3.78,3.78,0,0,1-.7-.15l-1.87-.49c-1.58-.4-3.77-.92-6.21-1.42S139.63,41.27,138,41l-1.91-.32a3.73,3.73,0,0,1-.7-.15,3.87,3.87,0,0,1,.72,0c.45,0,1.11.11,1.91.22,1.62.22,3.85.57,6.3,1.07s4.63,1,6.2,1.51c.79.23,1.42.43,1.85.59A3.92,3.92,0,0,1,153.07,44.22Z"></path><path class="cls-3" d="M157.87,47.66a14.11,14.11,0,0,0-2,.06,7.3,7.3,0,0,0-4.15,2.08A8.05,8.05,0,0,0,149.63,54a15.56,15.56,0,0,0-.17,2,1.46,1.46,0,0,1-.1-.54,6.52,6.52,0,0,1,.06-1.47,7.8,7.8,0,0,1,2.1-4.35,7.16,7.16,0,0,1,4.34-2.08,5.71,5.71,0,0,1,1.48,0A1.33,1.33,0,0,1,157.87,47.66Z"></path><path class="cls-3" d="M152.13,67s0,.09,0,.26,0,.43,0,.74c0,.66.12,1.62.28,2.86.32,2.49.95,6.05,1.57,10.48l.06.42v.14h0c-.1,0,.24,0-.23.07v0h0c-.21.06.29,0,.23,0l0,.2c.06.28.11.56.17.85a14.33,14.33,0,0,0,.52,1.7,9.19,9.19,0,0,0,2,3.16,8,8,0,0,0,3.42,2,12.31,12.31,0,0,0,4.22.41l19.21-1.26,3.62-.23-.15.19c-.55-3.41-1.09-6.73-1.6-9.91l.14.13-19.22-1.74h-.09l0-.09c-1-5-1.75-9-2.3-11.84-.26-1.38-.46-2.47-.6-3.22-.07-.36-.12-.64-.15-.85s0-.28,0-.28a.92.92,0,0,1,.08.28c0,.2.11.49.18.84.16.75.39,1.83.68,3.21.57,2.81,1.39,6.84,2.41,11.81l-.11-.09,19.21,1.67h.13l0,.13c.52,3.17,1.06,6.5,1.62,9.91l0,.18h-.19l-3.62.25L164.47,90.5a12.76,12.76,0,0,1-4.33-.44A8.39,8.39,0,0,1,156.61,88a9.21,9.21,0,0,1-2-3.27,12.18,12.18,0,0,1-.51-1.73l-.18-.86,0-.21c-.05,0,.44-.11.24,0h0v0l-.06,0c-.13,0-.21,0-.17,0h0v-.13l-.06-.42c-.6-4.43-1.19-8-1.46-10.5-.14-1.25-.21-2.21-.23-2.88,0-.32,0-.57,0-.74A1.33,1.33,0,0,1,152.13,67Z"></path></g></g></svg>