<svg xmlns="http://www.w3.org/2000/svg" viewBox="0 0 88.88 43.59"><defs><style>.cls-1,.cls-15{fill:#fbfdfc;}.cls-2,.cls-4{fill:#dfe0df;}.cls-10,.cls-11,.cls-12,.cls-13,.cls-14,.cls-15,.cls-16,.cls-17,.cls-18,.cls-2,.cls-20,.cls-21,.cls-22,.cls-23,.cls-24,.cls-25,.cls-26,.cls-27,.cls-3,.cls-5,.cls-6,.cls-7,.cls-8,.cls-9{fill-rule:evenodd;}.cls-3{fill:#142022;}.cls-5{fill:#395081;}.cls-6{fill:#3c5181;}.cls-7{fill:#cacac9;}.cls-8{fill:#1d335c;}.cls-19,.cls-9{fill:#214f5b;}.cls-10{fill:#151b1b;}.cls-11{fill:#fff;}.cls-12{fill:#ec665b;}.cls-13{fill:#afafaf;}.cls-14{fill:#e84f3d;}.cls-16{fill:#007535;}.cls-17{fill:#f8b89c;}.cls-18{fill:#f28d69;}.cls-20{fill:#f5f5f5;}.cls-21{fill:#a6a6a5;}.cls-22{fill:#151818;}.cls-23{fill:#cb4331;}.cls-24{fill:#76311e;}.cls-25{fill:#082c34;}.cls-26{fill:#9d523d;}.cls-27{fill:#9cd8f7;}</style></defs><g id="Capa_2" data-name="Capa 2"><g id="Capa_1-2" data-name="Capa 1"><rect class="cls-1" y="32.97" width="3.21" height="0.85"></rect><path class="cls-2" d="M1.36,34.71v-.23c0-.14,0-.35,0-.62H4.56l0,0v.85l0,0h0v-.87l0,0H1.35v.85Z"></path><rect class="cls-1" x="84.31" y="15.82" width="3.21" height="0.85"></rect><path class="cls-2" d="M85.66,17.56V17.5a1.16,1.16,0,0,1,0-.17v-.62h3.2l0,0v.85l0,0h0v-.87s0,0,0,0H85.65c0,.27,0,.48,0,.63v.22Z"></path><path class="cls-2" d="M49.28,4.25h0V4c0-.15,0-.36,0-.63h3.19l0,0v.85h0V3.4s0,0,0,0H49.27v.84Z"></path><path class="cls-2" d="M48.84,3.4h0V3.34s0-.1,0-.17V2.56h1.9V3.4h0V2.56s0,0,0,0H48.83v0c0,.26,0,.47,0,.62V3.4Z"></path><path class="cls-3" d="M.69,39.64s19.24,0,43,0,43,0,43,0-19.23,0-43,0S.69,39.62.69,39.64Z"></path><rect class="cls-4" x="17.37" y="27.22" width="66.33" height="9.01"></rect><path class="cls-5" d="M18.17,36.23H31v-.82c0-.18,0-.36,0-.54a6.54,6.54,0,0,0-6.36-6.71,6.54,6.54,0,0,0-6.36,6.71c0,.18,0,.36,0,.54h-.12v.82Zm49.17,0H80.05V34.62a6.35,6.35,0,1,0-12.7,0Z"></path><path class="cls-6" d="M13.54,26.68a34.21,34.21,0,0,1,8.14-3.15c.82-.09,4.48-.6,4.48-.6l1.19-.09S40,16.59,42,15.81c3.11-1.2,9.68-2.24,16.64-1.38,0,0,9.3.85,11.37,1.45S82,19.59,82,19.59a37.75,37.75,0,0,1,4.32.63,1.41,1.41,0,0,1-.42.64v2.8a6.48,6.48,0,0,1,.6,1c.13.31.4,2.8.4,2.8a21.82,21.82,0,0,1,1.31,3.94c0,.82-2.37,4-2.95,4.44S80.05,37,80.05,37V34.62a6.35,6.35,0,1,0-12.7,0l0,3.06H30.94l0-2.27c0-.18,0-.36,0-.54a6.54,6.54,0,0,0-6.36-6.71,6.54,6.54,0,0,0-6.36,6.71c0,.18,0,.36,0,.54h-.13v2.27H14s-3.4-2.61-3.31-3.94V30a2,2,0,0,1,.5-1.33A11.48,11.48,0,0,1,13.54,26.68Z"></path><path class="cls-7" d="M86.93,27.44s0-.26-.06-.57C86.9,27.18,86.93,27.41,86.93,27.44Z"></path><path class="cls-8" d="M14,37.68h4.2V35.41h.12c0-.18,0-.36,0-.54a6.54,6.54,0,0,1,6.36-6.71A6.54,6.54,0,0,1,31,34.87c0,.18,0,.36,0,.54l0,2.27h1.82a12.24,12.24,0,0,1,.7-2.85,5.78,5.78,0,0,1,.42-.66c-.05-.27-00.09-.54-.13-.81-.15-1-.26-2-.32-3-.22-.61-.45-1.29-.69-2l-3.12.32a10.48,10.48,0,0,0-5.18-1.45,6.35,6.35,0,0,0-.75,0c-3.86.32-5.74,4.06-5.74,4.06l-4.29.24-.32-1.52-2.68,1.38V33.8c0,1.34,3.31,3.88,3.31,3.88Zm22.53,0H67.33l0-3.06a6.35,6.35,0,1,1,12.7,0V37s4.66-.68,5.24-1.16,2.95-3.62,2.95-4.44a21.82,21.82,0,0,0-1.31-3.94h0s0-.26-.07-.57l-.18-.16a15.6,15.6,0,0,1-7.53,3.22,4.51,4.51,0,0,0-.85-.85,7.83,7.83,0,0,0-.79-.47A8.2,8.2,0,0,0,74,27.66h-.81c-.26,0-.52,0-.76.07a8.28,8.28,0,0,0-2.42.66,6.86,6.86,0,0,0-.76.43,4.51,4.51,0,0,0-.43.33s0,0,0,.05l0,.07c-1.1,1.65-2.37,3.49-3.77,5.49a3.33,3.33,0,0,1-.56.68,2.91,2.91,0,0,1-.72.53,2.32,2.32,0,0,1-.86.26h-.91l-3.8.06-4.68.11v.2a.31.31,0,0,1,0,.1v0s0-.06,0-.1a1.48,1.48,0,0,0,0-.2l-3.49.09-13.18.25c-.07.28-.16.59-.26.93Zm.28-1c.14-.51.23-.92.31-1.26,3.2,0,11.54-.11,16.3-.25,0,.42,0,.78,0,1a.62.62,0,0,1,0,.13l-3.49.08-13.16.26Zm16.67-.34v-.13c0-.27,0-.62,0-1,1.8-.05,3.07-.11,3.36-.17,1.22-.28,8-3.22,8-3.22s-.14-.08-.29-.08c-1.55,0-8.47,2.68-8.47,2.68H53.43c0-1.19,0-2.75-.08-4.45,0-1.2,0-2.33,0-3.31L57,26.52c0,.88,0,1.73-.08,2.57l0,1.37c0,.12,0,.23,0,.34a1.93,1.93,0,0,0,0,.34.65.65,0,0,0,.68.54h7.65a.66.66,0,0,0,.21-.08.59.59,0,0,0,.24-.26.87.87,0,0,0,.06-.21V31a1.28,1.28,0,0,1,0-.22q0-.29,0-.84c0-.62,0-1.49-.09-2.55a14.49,14.49,0,0,1,3.1,1.9c-1.11,1.63-2.37,3.47-3.76,5.45h0a3.51,3.51,0,0,1-1.26,1.19,2.2,2.2,0,0,1-.84.24h-.91c-1.22,0-2.49,0-3.79.06l-4.69.11ZM37.24,34.51c0-.25,0-.46.07-.67a32.74,32.74,0,0,1,1.75-6.07l9.44-1s2.12-.09,4.75-.17c0,1,0,2.11,0,3.32,0,1.7.06,3.25.09,4.44l-16.13.12Zm-3.31-.41-.12-.75c-.14-1-.24-1.88-.31-2.76.34.95.61,1.72.71,2.06a1.49,1.49,0,0,1-.28,1.45Zm34.92-5s0,0,0,0a5.37,5.37,0,0,1,2.95-1.33q-.37.07-.72.18a8.08,8.08,0,0,0-1.07.4,4.81,4.81,0,0,0-.75.44,3.26,3.26,0,0,0-.43.35Z"></path><path class="cls-3" d="M75.41,19.8a.46.46,0,0,1-.2.82l-3.2.45L53.84,23.14,31.68,24.42a1,1,0,0,1-.91-.45.85.85,0,0,1,.2-1.16A42.57,42.57,0,0,1,37,19,32.7,32.7,0,0,1,54.85,14.9c3.06.11,8.94,1,16.53,2a1,1,0,0,1,.45.19Z"></path><path class="cls-9" d="M71.63,20.73a25.6,25.6,0,0,0-2-3.54c-.32-.19-13.54-1.93-13.72-1.69s-.64,7-.64,7Z"></path><polygon class="cls-3" points="66.59 16.7 66.7 21.4 66.02 21.4 66.02 16.63 66.59 16.7"></polygon><path class="cls-3" d="M34.81,20.23l0,.07-.1.22c0,.09-.09.21-.14.35s-.12.3-.19.49a17.57,17.57,0,0,0-.78,3.36,28.39,28.39,0,0,0-.16,5.37c.06,1,.17,2.12.34,3.27.08.58.18,1.16.31,1.76a2.46,2.46,0,0,0,.11.45c.06.14.14.28.21.41s.33.53.51.79h0l15-.28,8.2-.2,3.8-.06h.91a2.14,2.14,0,0,0,.86-.25,2.91,2.91,0,0,0,.72-.53,3.33,3.33,0,0,0,.56-.68h0c1.4-2,2.66-3.84,3.77-5.49.55-.83,1.07-1.6,1.53-2.32s.89-1.39,1.25-2A8.64,8.64,0,0,0,72,24a1.45,1.45,0,0,0,.09-.22,1.72,1.72,0,0,0,.07-.21c0-.08,0-.15.06-.22a1.55,1.55,0,0,1,0-.21,3.13,3.13,0,0,0-.1-1.41,3,3,0,0,0-.35-.8,1.6,1.6,0,0,0-.18-.24.25.25,0,0,1,0,.06s.08.1.13.18a3.5,3.5,0,0,1,.35.8,3.29,3.29,0,0,1,.08,1.4,1.55,1.55,0,0,0,0,.21,1.66,1.66,0,0,1-.06.21,1.42,1.42,0,0,1-.07.22L72,24a7,7,0,0,1-.47.89c-.36.62-.78,1.29-1.25,2s-1,1.49-1.53,2.32c-1.11,1.64-2.38,3.48-3.78,5.48h0a3.51,3.51,0,0,1-1.26,1.19,2.2,2.2,0,0,1-.84.24h-.45c-.15,0-.3,0-.46,0-1.22,0-2.49,0-3.79.06l-8.2.19-15,.29,0,0a8.65,8.65,0,0,1-.51-.78,2.44,2.44,0,0,1-.32-.85c-.12-.59-.22-1.18-.31-1.75-.17-1.14-.28-2.24-.34-3.27a28.35,28.35,0,0,1,.14-5.35,17.64,17.64,0,0,1,.76-3.36c.07-.19.13-.35.18-.5s.11-.25.14-.35l.09-.22Z"></path><path class="cls-3" d="M53.56,23.16a.63.63,0,0,0,0,.13,3.62,3.62,0,0,0-.07.39c-.06.34-.11.84-.15,1.45-.08,1.23,0,2.94,0,4.81s.07,3.58.1,4.82c0,.6,0,1.1,0,1.45,0,.17,0,.3,0,.4s0,.07,0,.1v0a.1.1,0,0,0,0,0v-.5c0-.35,0-.85,0-1.46,0-1.23,0-2.93-.08-4.81s-.06-3.58,0-4.8c0-.62.07-1.12.12-1.46q0-.25.06-.39a.3.3,0,0,1,0-.1Z"></path><path class="cls-9" d="M53.41,15.36l-1.36,7.11L37.59,23.53,35.37,20.4a41.35,41.35,0,0,1,10.52-4.3A27.7,27.7,0,0,1,53.41,15.36Z"></path><path class="cls-5" d="M37.09,35.42c3.2,0,11.54-.11,16.3-.25,0-.13,0-.27,0-.41s0-.24,0-.36l-16.13.11c0,.25-.08.54-.15.91Zm16.35-.25c1.79-.05,3.07-.11,3.36-.17,1.22-.28,8-3.22,8-3.22s-.14-.08-.29-.08c-1.55,0-8.47,2.68-8.47,2.68H53.43v.36C53.44,34.9,53.44,35,53.44,35.17Z"></path><path class="cls-10" d="M53.39,35.17h0c0-.13,0-.27,0-.42v-.36h-.06c0,.12,0,.24,0,.36S53.39,35,53.39,35.17Z"></path><path class="cls-3" d="M68.72,29.29l0,0,.11-.1a4.51,4.51,0,0,1,.43-.33,5.56,5.56,0,0,1,.76-.43A7.64,7.64,0,0,1,71.12,28a9.2,9.2,0,0,1,1.35-.27c.24,0,.5,0,.76-.07h.53a1.31,1.31,0,0,1,.28,0,8.2,8.2,0,0,1,3.47.95,7.09,7.09,0,0,1,1.34.89l0,0,0,0c.64-.93,1.24-1.8,1.76-2.6s1-1.53,1.32-2.14.63-1.11.82-1.45c.1-.17.17-.3.22-.4l.06-.1v0l0,0-.06.1-.23.39c-.2.34-.49.83-.84,1.44s-.81,1.34-1.33,2.13-1.13,1.67-1.77,2.59h.05a7.55,7.55,0,0,0-1.35-.9,8.25,8.25,0,0,0-3.5-.95,2.94,2.94,0,0,0-.42,0h-.4c-.27,0-.52,0-.77.07A8.32,8.32,0,0,0,71.1,28a6.88,6.88,0,0,0-1.07.4,4.81,4.81,0,0,0-.75.44,3.26,3.26,0,0,0-.43.35.47.47,0,0,0-.1.11Z"></path><path class="cls-3" d="M86,33a.79.79,0,0,0,.06-.23c0-.14.07-.35.12-.62.09-.52.21-1.24.33-2s.2-1.53.25-2.06q0-.41.06-.63a1,1,0,0,0,0-.23.89.89,0,0,0,0,.23c0,.16-.05.37-.08.62-.07.53-.16,1.26-.28,2.06s-.22,1.53-.31,2.05c0,.26-.07.47-.09.63S86,33,86,33Z"></path><path class="cls-3" d="M79.92,33.57H81c.69,0,1.65-.09,2.69-.19s2-.25,2.68-.37c.34,0,.61-.11.8-.15l.22,0,.07,0h-.07l-.22,0-.81.12c-.68.1-1.63.23-2.67.34s-2,.17-2.69.21l-.81,0-.23,0Z"></path><path class="cls-11" d="M13.34,30.1s.84-2,.81-2.07c-.12-.36-.61-1.34-.61-1.34a9.07,9.07,0,0,0-.86.57,10.69,10.69,0,0,0-1.62,1.46,1.64,1.64,0,0,0-.4,1.08v1.68Z"></path><path class="cls-3" d="M31.53,20.81a6.18,6.18,0,0,0,.39.54,4,4,0,0,0,.41.53A2.72,2.72,0,0,0,32,21.3,1.78,1.78,0,0,0,31.53,20.81Z"></path><path class="cls-12" d="M85.93,20.86s-6.34.53-6.27.68,6.27,2.12,6.27,2.12Z"></path><path class="cls-3" d="M86,23.74s0-.64,0-1.44,0-1.43,0-1.43a10.87,10.87,0,0,0,0,1.43A11,11,0,0,0,86,23.74Z"></path><path class="cls-3" d="M18,31.38l0-.06.1-.16c.09-.15.22-.36.41-.62a8.71,8.71,0,0,1,.77-.92,7.56,7.56,0,0,1,1.2-1.05,6.64,6.64,0,0,1,1.74-.91,7.53,7.53,0,0,1,2.25-.35,9.61,9.61,0,0,1,2.56.28,8.23,8.23,0,0,1,1.32.45,5.57,5.57,0,0,1,1.27.73h0l9.64-1,9-.92.26,0h.26l.51,0,1,0,1.91-.07c1.23,0,2.37-.06,3.42-.08,2.09,0,3.78,0,5,0h0c-1.17,0-2.86,0-5,0l-3.43.07-1.9.07-1,0-.51,0h-.25l-.26,0-9,.91-9.64,1h0A6.34,6.34,0,0,0,28.36,28,7.5,7.5,0,0,0,27,27.53a9.68,9.68,0,0,0-2.57-.28,7.4,7.4,0,0,0-2.27.36,6.65,6.65,0,0,0-1.74.92,7.59,7.59,0,0,0-1.2,1.06,11.28,11.28,0,0,0-.77.93c-.18.27-.32.48-.4.63A1.61,1.61,0,0,0,18,31.38Z"></path><path class="cls-3" d="M35.77,35.43h1.15l3.13-.06,10.32-.2,5.68-.12h.65a2.37,2.37,0,0,0,.6-.21l1.12-.46,2-.78c1.24-.47,2.24-.86,2.92-1.14.35-.14.61-.26.79-.34a1.37,1.37,0,0,0,.2-.09l.07,0-.07,0-.21.08-.79.32-2.93,1.12-2,.77-1.12.45a2.17,2.17,0,0,1-.59.2,1.67,1.67,0,0,1-.32,0h-.32l-5.68.11-10.32.23-3.13.07-.85,0h-.3Z"></path><path class="cls-2" d="M37.45,20.35A4.93,4.93,0,0,1,38,22.68a1.07,1.07,0,0,1-1.05,1l-2.61,0a.77.77,0,0,1-.78-.67.76.76,0,0,1,.07-.41c.27-.57.5-.46.5-.46a5.75,5.75,0,0,1,2-2.33A1,1,0,0,1,37.45,20.35Z"></path><path class="cls-3" d="M34.75,23.73s-.1,0-.23-.12a1,1,0,0,1-.38-.53,2.36,2.36,0,0,1-.06-.66c0-.16,0-.26,0-.26a1.27,1.27,0,0,1,0,.26,3.1,3.1,0,0,0,.07.63,1.1,1.1,0,0,0,.33.51C34.67,23.67,34.76,23.71,34.75,23.73Z"></path><path class="cls-11" d="M34.56,21.83a1.11,1.11,0,0,1,.14-.35,3.09,3.09,0,0,1,.54-.73A3,3,0,0,1,36,20.2a.87.87,0,0,1,.34-.15,5.85,5.85,0,0,0-1,.76A5.86,5.86,0,0,0,34.56,21.83Z"></path><path class="cls-9" d="M54.66,14.89s0,0,0,.09,0,.14,0,.23-.1.51-.16.88c-.13.75-.3,1.78-.46,2.91s-.29,2.18-.36,2.94a4.6,4.6,0,0,0,0,.5c0,.15,0,.28,0,.39a1.63,1.63,0,0,1,0,.24.31.31,0,0,0,0,.09.31.31,0,0,0,0-.09c0-.06,0-.14,0-.24a3,3,0,0,1,0-.38c0-.15,0-.32.05-.51.07-.75.21-1.78.37-2.92s.33-2.17.44-2.92c.06-.36.1-.66.14-.88s0-.18,0-.24A.62.62,0,0,0,54.66,14.89Z"></path><path class="cls-13" d="M85.93,23.66h0s-6.2-2-6.27-2.12c0,.1,3.85,1.36,6.27,2.12ZM80,21.45c.4-.06,1.11-.14,1.89-.22C81.19,21.3,80.47,21.37,80,21.45Z"></path><path class="cls-14" d="M85.93,23.66l-3.14-1.93-.09-.58-.78.08c-.78.08-1.49.16-1.89.22a2.21,2.21,0,0,0-.37.09C79.73,21.68,85.93,23.66,85.93,23.66Z"></path><path class="cls-7" d="M10.65,31.48h0l2.68-1.38c.33-.8.63-1.54.81-2.07L12.48,29.5l-1.82.3Z"></path><path class="cls-3" d="M14.17,28l0,0,.13-.05.46-.2L16.5,27c.73-.32,1.59-.69,2.55-1.08a16,16,0,0,1,1.52-.56c.28-.07.56-.12.85-.17l.87-.14,6.05-.93,1.84-.28.5-.08.13,0h0l-.13,0-.5.06-1.84.26c-1.56.22-3.7.53-6.06.9l-.88.14c-.28.05-.57.1-.84.17a14.55,14.55,0,0,0-1.54.57c-1,.4-1.82.78-2.54,1.1l-1.69.78-.46.22-.12.06Z"></path><path class="cls-3" d="M79.66,35a5.93,5.93,0,1,1-6-6A6,6,0,0,1,79.66,35Z"></path><path class="cls-3" d="M79.66,35v0a5.93,5.93,0,1,1-11.85.17h0Z"></path><path class="cls-15" d="M77.9,35a4.16,4.16,0,1,1-4.23-4.25A4.25,4.25,0,0,1,77.9,35Z"></path><path class="cls-2" d="M73.68,30.79A4.25,4.25,0,0,1,77.9,35l-8.32.13A4.24,4.24,0,0,1,73.68,30.79Z"></path><path class="cls-3" d="M76.27,35.06a2.54,2.54,0,1,1-2.57-2.58A2.59,2.59,0,0,1,76.27,35.06Z"></path><path class="cls-3" d="M30.62,35a5.93,5.93,0,1,1-6-6A6,6,0,0,1,30.62,35Z"></path><path class="cls-3" d="M30.62,35v0a5.93,5.93,0,1,1-11.85.17h0Z"></path><path class="cls-15" d="M28.85,35a4.16,4.16,0,1,1-4.22-4.25A4.23,4.23,0,0,1,28.85,35Z"></path><path class="cls-2" d="M24.63,30.79A4.23,4.23,0,0,1,28.85,35l-8.32.13A4.25,4.25,0,0,1,24.63,30.79Z"></path><path class="cls-3" d="M27.23,35.06a2.54,2.54,0,1,1-2.57-2.58A2.59,2.59,0,0,1,27.23,35.06Z"></path><path class="cls-11" d="M47.07,21.28S46,20.66,44.62,20s-2.48-1.28-2.48-1.26,1.08.61,2.45,1.33S47.06,21.3,47.07,21.28Z"></path><path class="cls-11" d="M48.6,21.12s-1-.61-2.33-1.31-2.35-1.27-2.36-1.25,1,.61,2.33,1.32S48.59,21.14,48.6,21.12Z"></path><path class="cls-11" d="M63.88,20.86l-.21-.1-.6-.25-2-.81-1.95-.83-.59-.25c-.14-.06-.21-.09-.22-.08l.21.11.58.27c.49.23,1.18.54,1.94.86s1.46.59,2,.78l.61.23Z"></path><path class="cls-11" d="M62.47,19.17a13.15,13.15,0,0,0-1.27-.63A12.45,12.45,0,0,0,59.9,18a13.15,13.15,0,0,0,1.27.63A12.45,12.45,0,0,0,62.47,19.17Z"></path><path class="cls-3" d="M10.65,31.48a1.22,1.22,0,0,0,0-.24c0-.17,0-.39,0-.66s0-.61,0-1a2.16,2.16,0,0,1,.54-1,5.31,5.31,0,0,1,.84-.81l.75-.58.53-.37.18-.14a.79.79,0,0,0-.2.11l-.54.36c-.22.15-.48.34-.77.57a4.93,4.93,0,0,0-.85.81c-.13.17-.25.33-.36.5a1.29,1.29,0,0,0-.19.56c0,.37,0,.7,0,1s0,.49,0,.66S10.65,31.48,10.65,31.48Z"></path><path class="cls-11" d="M31.89,5.63l-.83.15a2.57,2.57,0,0,1-1.17.75A2.55,2.55,0,1,1,31.53,5h0Z"></path><path class="cls-3" d="M31.89,5.63a.11.11,0,0,1,0,0l-.07-.12L31.52,5h0a2.5,2.5,0,0,0,.14-1.22,2.7,2.7,0,0,0-.08-.39A3.86,3.86,0,0,0,31.43,3a2.55,2.55,0,0,0-.55-.74A2.59,2.59,0,0,0,30,1.73a2.52,2.52,0,0,0-3,1.11A2.51,2.51,0,0,0,27.48,6a2.51,2.51,0,0,0,.86.5,2.48,2.48,0,0,0,1.68,0,2.54,2.54,0,0,0,1-.69h0l.63-.1.16,0h0l-.16,0-.62.12h0a2.48,2.48,0,0,1-1,.71,2.59,2.59,0,0,1-1.7,0A2.63,2.63,0,0,1,27.45,6a2.85,2.85,0,0,1-.64-.88,2.57,2.57,0,0,1,.13-2.3L27,2.68a1.13,1.13,0,0,1,.1-.13,2.31,2.31,0,0,1,.2-.24l.11-.11.12-.1a2.27,2.27,0,0,1,.25-.18,2.76,2.76,0,0,1,1.13-.38,2.7,2.7,0,0,1,1.1.15,2.78,2.78,0,0,1,.88.54,2.63,2.63,0,0,1,.55.76,3.12,3.12,0,0,1,.15.39,2.08,2.08,0,0,1,.08.39A2.68,2.68,0,0,1,31.54,5h0c.11.2.2.36.27.47s.05.09.06.12Z"></path><polygon class="cls-16" points="28.99 5.14 27.75 4.3 28.04 3.87 28.87 4.43 29.91 3.05 30.33 3.37 28.99 5.14"></polygon><path class="cls-3" d="M41.06,13.63a.26.26,0,0,0-.13-.22,5.58,5.58,0,0,1-2.17-4,2.26,2.26,0,0,0,0-.26h0a23.78,23.78,0,0,0-.65-5.33c-.51-1.26-2.25-1.38-2.25-1.38-2.31-.16-2.72,1.61-3,3.23-.14,1-.7,4.59-.7,4.59l.42.17a5.23,5.23,0,0,0,3.09,3.23c.43.16.79.22,1,.09a5.79,5.79,0,0,0,2.43,1.47,3,3,0,0,0,1.15.16.93.93,0,0,0,.67-.32.58.58,0,0,0-.5-.92C40.5,13.87,41.08,14,41.06,13.63Z"></path><path class="cls-17" d="M36.17,3,36,2.9l-1.22.5c-.23,0-.6.44-.61.67l0,5c0,.35-.08.66.12.93l.22.29a1.16,1.16,0,0,0,1.93-.12.55.55,0,0,0,0-.13c0-.05,0-.08,0-.12,0-.41.09-.69.09-.69v-.7a1.55,1.55,0,0,0,1.22-1.34,11,11,0,0,0,.07-2.27A1.79,1.79,0,0,0,36.17,3Z"></path><path class="cls-3" d="M36,5.72a.16.16,0,1,1-.16-.15A.15.15,0,0,1,36,5.72Z"></path><path class="cls-3" d="M37.6,5.72a.16.16,0,0,1-.32,0,.16.16,0,0,1,.16-.15A.15.15,0,0,1,37.6,5.72Z"></path><path class="cls-3" d="M37.75,5.27s-.13-.08-.3-.09-.3.08-.32.05,0,0,.07-.08a.37.37,0,0,1,.25-.06.36.36,0,0,1,.25.09S37.76,5.26,37.75,5.27Z"></path><path class="cls-3" d="M36,5.29a1.64,1.64,0,0,0-.3-.12c-.17,0-.3,0-.32,0s0-.05.08-.08a.51.51,0,0,1,.26,0,.38.38,0,0,1,.23.12C36,5.24,36,5.28,36,5.29Z"></path><path class="cls-3" d="M36.62,6.53a1.33,1.33,0,0,1,.28,0s.08,0,.09,0a.23.23,0,0,0,0-.13c0-.1-.07-.22-.11-.34a5.2,5.2,0,0,1-.25-.88,5.87,5.87,0,0,1,.32.86c0,.12.07.23.1.34a.25.25,0,0,1,0,.17.13.13,0,0,1-.08.07h-.35Z"></path><path class="cls-18" d="M36.65,8.49A3.14,3.14,0,0,1,35,8a1.65,1.65,0,0,0,1.64.83Z"></path><path class="cls-18" d="M36.52,6.94a.28.28,0,0,0-.27-.13.27.27,0,0,0-.2.09.2.2,0,0,0,0,.21.21.21,0,0,0,.22.06.63.63,0,0,0,.23-.12.12.12,0,0,0,.05,0,0,0,0,0,0,0-.06Z"></path><path class="cls-3" d="M36.11,6.62s0,.19.17.33.35.12.35.15-.05,0-.13,0A.42.42,0,0,1,36.21,7a.38.38,0,0,1-.13-.27C36.07,6.66,36.1,6.62,36.11,6.62Z"></path><path class="cls-3" d="M36.18,4.62s-.18,0-.39,0-.37,0-.39,0,0-.06.1-.1a.79.79,0,0,1,.3-.06.76.76,0,0,1,.3.09C36.16,4.56,36.19,4.6,36.18,4.62Z"></path><path class="cls-3" d="M37.73,4.53s-.15,0-.29,0-.26,0-.29,0,0-.06.07-.1a.39.39,0,0,1,.23,0,.44.44,0,0,1,.23.09S37.74,4.52,37.73,4.53Z"></path><path class="cls-3" d="M34.07,6.19s.87.27,1.37-1.89A3,3,0,0,1,36.29,3L36,2.88s-1.72.49-1.75.51-.44.9-.44.9Z"></path><path class="cls-17" d="M34.41,6.07c0-.09-.09-.31-.18-.33a.54.54,0,0,0-.72.56.63.63,0,0,0,.81.69S34.39,6.39,34.41,6.07Z"></path><path class="cls-18" d="M34.08,6.66l0,0a.2.2,0,0,1-.11,0,.41.41,0,0,1-.15-.34.65.65,0,0,1,.06-.21c0-.06.07-.1.11-.1a.08.08,0,0,1,.09,0s0,0,0,0,0,0,0,0A.09.09,0,0,0,34,6,.11.11,0,0,0,34,6a.19.19,0,0,0-.16.13.41.41,0,0,0-.06.23.36.36,0,0,0,.19.37.13.13,0,0,0,.13,0S34.09,6.66,34.08,6.66Z"></path><path class="cls-9" d="M33.51,9.38a.1.1,0,0,1,0,0s0-.07,0-.12,0-.27-.08-.46h0l0,.1h0v0h0a8.13,8.13,0,0,1-.27-1.36,8,8,0,0,1,0-.88,4,4,0,0,1,.08-1,1.45,1.45,0,0,1,.16-.38A1.5,1.5,0,0,1,33.58,5c.17-.2.36-.37.52-.54.35-.33.65-.63.91-.89L35.62,3l.17-.17.05,0h0v0l0,0L35.63,3l-.6.6-.9.9c-.17.17-.35.34-.52.54a1.56,1.56,0,0,0-.38.69,3.9,3.9,0,0,0-.08,1,8.18,8.18,0,0,0,.05.88,8.22,8.22,0,0,0,.25,1.35h0v0h0s0-.07,0-.1h0c0,.19,0,.35.07.46a.54.54,0,0,1,0,.11A.18.18,0,0,1,33.51,9.38Z"></path><path class="cls-9" d="M33,5.29s0,0,0,0l0-.1c0-.08.11-.2.2-.35s.2-.32.33-.5.29-.38.47-.58a6.37,6.37,0,0,1,.52-.52L35,2.81l.33-.23.1-.06,0,0,0,0-.09.07L35,2.83l-.46.39c-.16.16-.34.33-.51.53s-.33.39-.47.57-.25.35-.34.49L33,5.16a.93.93,0,0,0-.05.1Z"></path><path class="cls-18" d="M47.41,11.88l.83.57a.28.28,0,0,1-.4.12,8.14,8.14,0,0,1-.79-.44l-.39.16-.31-.36,1-.07Z"></path><path class="cls-17" d="M44.19,13.16l2.07-1.24h.26l.83.11,0,0,.78.62a.06.06,0,0,1,0,.11.88.88,0,0,1-.39,0,1.81,1.81,0,0,1-.59-.34s0,0,0,0l-.55.1a0,0,0,0,0-.05.05v.07a.07.07,0,0,0,0,.06.94.94,0,0,0,.52.1,1.65,1.65,0,0,1,.39,0,1.43,1.43,0,0,1,.43.09.14.14,0,0,1-.06.25c-.25.06-.88.14-1,.18s-.27.28-.79.44a1.48,1.48,0,0,1-.8-.08l-.47.48a.07.07,0,0,1-.09,0l-.49-.88A.05.05,0,0,1,44.19,13.16Z"></path><rect class="cls-19" x="47.44" y="13.26" width="0.75" height="1.1" rx="0.23" transform="translate(-1.86 10.8) rotate(-12.65)"></rect><path class="cls-3" d="M47.61,12.8s0,0,.1,0a.33.33,0,0,1,.2.13.31.31,0,0,1,0,.24c0,.06,0,.09,0,.09s0,0,0-.1a.36.36,0,0,0,0-.19.3.3,0,0,0-.16-.12Z"></path><path class="cls-3" d="M47.7,13.36a.19.19,0,0,1-.2,0,.14.14,0,0,1-.09-.12s0-.06,0-.06,0,.09.11.13S47.69,13.34,47.7,13.36Z"></path><path class="cls-3" d="M48.07,14.32s0,0,0,0a.15.15,0,0,0,0-.12c0-.13-.07-.26-.11-.4s-.06-.27-.1-.41a.13.13,0,0,0-.06-.09h-.05a.05.05,0,0,1,.05,0s.07,0,.08.1.07.24.11.4.07.3.1.41a.18.18,0,0,1,0,.13Z"></path><path class="cls-3" d="M48,13.59l-.27.09-.27.06a.86.86,0,0,1,.26-.09Z"></path><path class="cls-3" d="M48,13.92l-.25.09-.26.06a1,1,0,0,1,.25-.09Z"></path><path class="cls-2" d="M48.14,14.3a.16.16,0,0,0,0-.16c0-.11-.19-.76-.19-.76l.1,0,.16.73S48.29,14.26,48.14,14.3Z"></path><path class="cls-3" d="M35.59,40.54v.12s2,.84,2,1.23l-4-.06.07-1.35A2.31,2.31,0,0,0,35.59,40.54Z"></path><path class="cls-9" d="M33.59,41.83V41.5l3.88.18s.18.08.16.21Z"></path><path class="cls-11" d="M35.6,40.67s-.1,0-.2.09-.15.15-.17.14a.28.28,0,0,1,.14-.2C35.49,40.63,35.61,40.65,35.6,40.67Z"></path><path class="cls-11" d="M36,40.85s-.08.06-.15.14-.09.17-.11.17a.21.21,0,0,1,.06-.21C35.91,40.84,36,40.84,36,40.85Z"></path><path class="cls-11" d="M36.26,41.37s0-.1,0-.21.14-.15.15-.13-.05.07-.09.16S36.28,41.37,36.26,41.37Z"></path><path class="cls-3" d="M32.69,39.32l1.73.48-.43,1,.44,2.48a.27.27,0,0,1-.19.32A.28.28,0,0,1,34,43.5a13.75,13.75,0,0,1-1.74-2.2l0-.52a2.93,2.93,0,0,1,.12-.38Z"></path><path class="cls-9" d="M34.19,43.59l-2-2.47v.11c0,.12,0,.17.08.26a18.55,18.55,0,0,0,1.65,2A.29.29,0,0,0,34.19,43.59Z"></path><path class="cls-11" d="M33.67,42.37a.78.78,0,0,1,.26-.19,1.17,1.17,0,0,1,.32,0,.18.18,0,0,0-.1,0,.57.57,0,0,0-.25,0,.33.33,0,0,0-.19.15S33.66,42.37,33.67,42.37Z"></path><path class="cls-11" d="M33.83,42.74s.11-.06.25-.09.27,0,.27,0a.34.34,0,0,0-.28,0C33.9,42.62,33.82,42.73,33.83,42.74Z"></path><path class="cls-11" d="M33.35,41.88a2.23,2.23,0,0,1,.38-.17,2.07,2.07,0,0,1,.41-.05.79.79,0,0,0-.79.22Z"></path><path class="cls-9" d="M34,40.44s0,.13,0,.34h0c0,.14.06.33.09.53s.08.44.11.6a1,1,0,0,0,.07.24l0-.25c0-.15-.06-.37-.1-.6s-.07-.38-.1-.53h0A1.37,1.37,0,0,0,34,40.44Z"></path><path class="cls-3" d="M31.55,24.5a7.82,7.82,0,0,1-.35-2.39,20.49,20.49,0,0,1,1.62-3.61h.56l5.38-.09.44,1a14.32,14.32,0,0,1,1,3.07,9.43,9.43,0,0,1-.73,4.33,37.63,37.63,0,0,0-2.12,7.06,17.37,17.37,0,0,1-.83,3.92c-.51,1.74-.89,2.78-.89,2.78a1.57,1.57,0,0,1-1.6.09L32.42,40a27.24,27.24,0,0,1,1-5.2c.4-.79,1.06-1.16.75-2.19S32,26.51,31.55,24.5Z"></path><path class="cls-9" d="M37.85,21.18l0,0a.35.35,0,0,1-.06.09l-.22.32-.86,1.23h0c0,.46.06,1,.09,1.59s0,1.24.09,1.95.08,1.45.12,2.23.08,1.61.16,2.46a10.27,10.27,0,0,1,.1,2.06c0,.16,0,.33-.07.49a2.49,2.49,0,0,1-.12.47c-.11.29-.24.58-.36.86-.5,1.13-1,2.13-1.35,3l-.92,2-.25.54-.06.14a.1.1,0,0,0,0,.05l0-.05s0-.08.07-.14l.26-.54.94-2c.39-.84.86-1.84,1.35-3,.13-.28.26-.56.37-.87a2.49,2.49,0,0,0,.12-.47c0-.17.05-.33.07-.5a9.7,9.7,0,0,0-.1-2.07c-.07-.84-.12-1.66-.16-2.45s-.09-1.54-.12-2.24-.07-1.35-.1-1.95-.05-1.12-.1-1.58h0l.84-1.24.22-.33.06-.08Z"></path><path class="cls-20" d="M37.13,9.69l-.46-.82-1,1.11-1.49-1.2-.25.3-.55,9.66a12.22,12.22,0,0,0,2.86.25,10.76,10.76,0,0,0,2.08-.57V12.93Z"></path><path class="cls-3" d="M34.17,10.08v0l0,0,.17.18c.15.14.37.35.64.56h0a6.84,6.84,0,0,0,.59-.74l.06-.08h0l.47.63a.23.23,0,0,0,.07.07.12.12,0,0,0,.09,0l.08,0,0-.06.19-.24c.11-.14.2-.25.26-.34A.57.57,0,0,0,37,10l0,0,0,0-.07.09-.28.33-.19.23a.23.23,0,0,1-.12.1s-.09,0-.13-.08L35.7,10v0l-.06.08a8.32,8.32,0,0,1-.59.74h0a7.79,7.79,0,0,1-.65-.55l-.17-.17,0-.05Z"></path><path class="cls-21" d="M35,11h0a5.64,5.64,0,0,1-.8-.68h0v-.24h0l.79.72c-.22-.18-.39-.33-.52-.45l-.17-.17s0,0,0-.05h0v0l0,0,.17.18a5.88,5.88,0,0,0,.64.56h0a6.84,6.84,0,0,0,.59-.74l0-.07.46.62a.23.23,0,0,0,.07.07.09.09,0,0,0,.07,0h.05c-.07.07-.16.15-.22.15h0c-.05-.06-.26-.38-.39-.56v-.21a.62.62,0,0,1,0,.09v.1c0-.05-.06-.09-.07-.09h0a2.59,2.59,0,0,0-.28.36c-.13.18-.28.36-.37.36Zm1.23-.26,0-.08,0,0s0,0,0,0Zm-1,0,.32-.4Z"></path><path class="cls-22" d="M35,10.89h0a6.84,6.84,0,0,0,.59-.74l0-.07.46.62a.23.23,0,0,0,.07.07.09.09,0,0,0,.07,0h0l-.08,0,0,0s0,0,0,0l0,0-.45-.58-.17.22-.32.4-.16.2-.12-.11c-.22-.18-.39-.33-.52-.45l-.17-.17s0,0,0-.05h0l0,.05.17.18a7.21,7.21,0,0,0,.64.56Z"></path><path class="cls-21" d="M36.34,10.78l0,0s0,0,0,0Z"></path><path class="cls-22" d="M36.34,10.77s0,0,0,0l0-.05Z"></path><path class="cls-3" d="M36,19.05V19a1.93,1.93,0,0,1,0-.26c0-.23,0-.56,0-1,0-.8-.08-1.91-.12-3.14s-.08-2.34-.1-3.15c0-.39,0-.72,0-.95s0-.19,0-.26v-.09a.31.31,0,0,0,0,.09v.26c0,.23,0,.56,0,.95,0,.81,0,1.92.08,3.15s.1,2.34.14,3.15c0,.4,0,.72.06.95s0,.19,0,.26S36,19.05,36,19.05Z"></path><path class="cls-22" d="M38.54,22.74a.19.19,0,0,0,.14-.07l.08-.73c-.17-1.16-.35-2.32-.53-3.48l-.49.16c.08,1.22.24,2.43.44,3.64a.73.73,0,0,0,.14.38A.3.3,0,0,0,38.54,22.74Z"></path><path class="cls-21" d="M37.74,18.62l.49-.16c-.16-1.11-.33-2.21-.5-3.31A25.11,25.11,0,0,0,37.74,18.62Z"></path><path class="cls-12" d="M39.19,9.71c.38.12.55.37.8.82l1.84,3.59s2.56-1.28,2.57-1.25l1,1.43-3,1.86a1.54,1.54,0,0,1-2.07-.42l-1-1.34-.79-4.82Z"></path><path class="cls-12" d="M37.76,9.43l1.17.23L39.34,14l-.15,3a1.09,1.09,0,0,0,0,.12l2,4.51A3.93,3.93,0,0,1,38.67,23s-.87-6.17-.93-7.53-1-6.52-1-6.52Z"></path><path class="cls-3" d="M41,21.15v0a.14.14,0,0,0,0-.06c0-.06-.06-.13-.1-.23s-.21-.49-.37-.84c-.31-.72-.76-1.72-1.26-2.86h0c0-.3,0-.62,0-.95,0-.73.07-1.44.1-2.07s0-1.21.05-1.7,0-.87,0-1.14,0-.24,0-.31v-.08a.17.17,0,0,0,0,.08,2.63,2.63,0,0,1,0,.31c0,.27,0,.66,0,1.14s0,1.06-.06,1.7-.06,1.34-.1,2.07c0,.33,0,.65,0,.95h0L40.43,20c.17.36.29.65.38.84s.08.18.1.23l0,.06Z"></path><path class="cls-3" d="M37.8,14.84v-.06l0-.17c0-.14.07-.35.11-.62s.08-.58.11-.93.06-.74.08-1.14c0-.15,0-.3,0-.45a1.48,1.48,0,0,1,0-.21v-.19h0l-.31-.22v0l.34-.16h0c-.05-.19-.11-.36-.16-.51l-.15-.39a2.55,2.55,0,0,0-.1-.25l0-.07v0s0,0,0,.06.06.15.1.25.08.24.14.39.11.33.16.52v0l-.34.16h0l0,0,.31.22h0v.18a1.62,1.62,0,0,0,0,.22c0,.15,0,.29,0,.45,0,.4-.05.79-.08,1.14s-.06.67-.1.93-.08.48-.1.62,0,.13,0,.17v.06Z"></path><path class="cls-12" d="M31.93,17.71l-.74-7.51,2.09-.77a5.45,5.45,0,0,0,.77-.51l.07,1A41.62,41.62,0,0,1,34,17.18c-.44,2.43-.38,2.34-.71,3.92-.23,1.15-.27,2.16-.63,2.26a8.89,8.89,0,0,1-2.17-.56Z"></path><path class="cls-12" d="M31.19,10.2a1.49,1.49,0,0,0-.73,1.19c-.08.78-.22,5.57-.2,5.95s.35,1.48.94,1.52a1.14,1.14,0,0,0,1.21-.67l-.26-2.45Z"></path><path class="cls-3" d="M33.59,14.58h0v0s0-.1,0-.16-.07-.34-.1-.59c-.08-.5-.14-1.2-.18-2,0-.18,0-.36,0-.53a2.09,2.09,0,0,1,0-.25.49.49,0,0,1,0-.12V10.8h0l.31-.22,0,0h0l-.34-.15h0a2.35,2.35,0,0,0,.07-.41c0-.13,0-.23,0-.32l0-.19s0,0,0-.05v0s0,0,0,0,0,.11,0,.2a2.24,2.24,0,0,0-.05.31,3.28,3.28,0,0,1-.08.41h0l.34.16v0l-.32.21h0V11c0,.08,0,.17,0,.25s0,.35,0,.53a19.67,19.67,0,0,0,.19,2c0,.25.08.45.11.59s0,.12,0,.16a.06.06,0,0,1,0,0Z"></path><path class="cls-21" d="M36.31,18.76h.18c.27-.05.21-.19.18-.23l-.69,0c0,.08,0,.15,0,.21v.06Zm-.34,0V18.7c0-.06,0-.13,0-.21l-2.2-.12c0,.09,0,.18,0,.26C34.44,18.68,35.39,18.74,36,18.76Z"></path><path class="cls-22" d="M36,18.76V18.7c0-.06,0-.13,0-.21h0c0,.08,0,.15,0,.21v.06Z"></path><path class="cls-23" d="M31.94,18.94l.68-.39,1.08.08c0-.08,0-.17,0-.26l-1-.05a.2.2,0,0,1-.2-.19v-.07l-.28.29a1.3,1.3,0,0,1-.26.28l0,0Z"></path><path class="cls-23" d="M32.06,18.63a1.11,1.11,0,0,0,.26-.28Z"></path><path class="cls-3" d="M32.39,12.59l4.48.23a.22.22,0,0,1,.2.2l.29,5.31a.2.2,0,0,1-.21.22l-4.35-.23a.21.21,0,0,1-.2-.19l-.43-5.31A.21.21,0,0,1,32.39,12.59Z"></path><path class="cls-3" d="M31.45,11.43v.05a1.3,1.3,0,0,1,0,.13c0,.12.06.29.1.5.08.42.19,1,.29,1.65s.18,1.24.23,1.66q0,.32.06.51a.83.83,0,0,1,0,.13v0a.53.53,0,0,1,0-.14c0-.12,0-.29-.06-.5,0-.43-.12-1-.22-1.66s-.21-1.23-.3-1.65c0-.21-.08-.38-.11-.5s0-.1,0-.14Z"></path><path class="cls-17" d="M32.3,16.07s-.26,0-.49.4l-.44.28a1.12,1.12,0,0,0,0,1.16.52.52,0,0,0,.85.08s.46.23.59.19a9,9,0,0,0,1.13-.62s.32-.35.32-.35.39-.08.43-.17.05-.3-.21-.28c0,0,.25-.08.28-.2s0-.3-.45-.24-1.32.31-1.42.28a.06.06,0,0,1,0-.11S34,16.08,34.12,16s.2-.44-.17-.35-1.56.38-1.56.38Z"></path><path class="cls-18" d="M33,17.59a1.22,1.22,0,0,0,.19-.05l.46-.14.46-.13.19-.05h-.05l-.15,0c-.12,0-.28.07-.46.12a3.36,3.36,0,0,0-.45.15l-.14.05Z"></path><path class="cls-18" d="M32.82,17.12h.07l.18,0,.6-.11.58-.14.18-.05.06,0h-.07l-.17.05-.59.13-.59.12-.18,0Z"></path><path class="cls-18" d="M31.58,17v0a.83.83,0,0,0,0,.13,1.11,1.11,0,0,0,.16.39,1.19,1.19,0,0,0,.29.3l.11.07.05,0-.14-.1a1.36,1.36,0,0,1-.45-.68A1.37,1.37,0,0,0,31.58,17Z"></path><path class="cls-3" d="M31.44,18.06a1.73,1.73,0,0,1-.13-.18,1.19,1.19,0,0,1-.14-.49,1,1,0,0,1,.11-.49,1.74,1.74,0,0,1,.12-.19.12.12,0,0,0,0,0,1,1,0,0,0-.1.14,1,1,0,0,0-.12.5,1,1,0,0,0,.16.5.49.49,0,0,0,.1.13Z"></path><path class="cls-3" d="M30.43,16.15a1.35,1.35,0,0,1,.2-.11l.23-.09.29,0a1,1,0,0,1,.3,0,1.37,1.37,0,0,1,.25.05l.21.08-.05,0-.07,0-.09,0a.84.84,0,0,0-.24-.06,1.55,1.55,0,0,0-.31,0l-.3.05-.23.1-.08.05a.15.15,0,0,0-.06,0A.11.11,0,0,0,30.43,16.15Z"></path><path class="cls-23" d="M33.29,12.51c0-.23,0-.46,0-.7s0-.36,0-.53,0-.17,0-.25,0-.08,0-.12V10.8h0l.29-.2-.32-.15h0a3.83,3.83,0,0,0,.08-.42,2.24,2.24,0,0,1,.05-.31l0-.13a4.51,4.51,0,0,0-.31.92.66.66,0,0,0,.25.13s-.32.14-.32.26.25,1.31.33,1.64Zm-.07-1.7h0Zm.06-.89c0-.09,0-.16,0-.23l0-.12Z"></path><path class="cls-22" d="M33.31,12.59l-.09-1.79h0l.31-.21-.34-.16.1-.5c0-.09,0-.16,0-.23l0-.12v0l0,0,0,.13a2.24,2.24,0,0,0-.05.31,3.83,3.83,0,0,1-.08.42h0l.32.15-.29.2h0v.11s0,.08,0,.12,0,.17,0,.25l0,.53c0,.24,0,.47,0,.7A.73.73,0,0,0,33.31,12.59Z"></path><path class="cls-9" d="M35.54,12.75c0,.06,0-.44,0-.44l-2.11-.09.06.43Z"></path><path class="cls-24" d="M47.75,15.06l.18.39.1-.73s.22,0,.25.25a4.84,4.84,0,0,0,.08.5l.11,0,.28,0,.77-.42-.24.6-.46.16-1.23-.19s-.26-.82-.26-.82S47.65,14.85,47.75,15.06Z"></path><path class="cls-9" d="M63,26.89s-.32-3-1-3.29-1.66-.55-1.92-.11a5.3,5.3,0,0,0-.64,1.83,10.37,10.37,0,0,0,0,1.79l.79-.09a17.85,17.85,0,0,1,.2-3.39c.24-.44,1.45-.09,1.59.44s.42,2.89.42,2.89Z"></path><path class="cls-9" d="M65.73,31.06c0-1.22-.16-3.91-.21-5.1a.61.61,0,0,0-.61-.57l-7.26,0a.6.6,0,0,0-.6.59l-.14,5a.6.6,0,0,0,.6.62l7.61,0A.6.6,0,0,0,65.73,31.06Z"></path><path class="cls-3" d="M65.73,31.06a.82.82,0,0,1-.07.28.52.52,0,0,1-.24.25.49.49,0,0,1-.21.08H65l-3.08,0H57.6a.64.64,0,0,1-.28,0,.55.55,0,0,1-.37-.46,1.82,1.82,0,0,1,0-.33c0-.11,0-.22,0-.33,0-.46,0-.91,0-1.38,0-.94,0-1.91.08-2.9a.85.85,0,0,1,0-.36.62.62,0,0,1,.21-.27.64.64,0,0,1,.33-.1h1.79l2.71,0h2.72a.59.59,0,0,1,.6.43,1.1,1.1,0,0,1,0,.26c0,.09,0,.17,0,.26s0,.33,0,.49c.06,1.3.11,2.36.14,3.08,0,.37,0,.65,0,.84s0,.17,0,.22a.17.17,0,0,0,0,.07V31s0-.12,0-.22,0-.48,0-.84c0-.73-.06-1.78-.11-3.08,0-.16,0-.33,0-.5s0-.17,0-.25a1.24,1.24,0,0,0,0-.27.63.63,0,0,0-.36-.42.82.82,0,0,0-.28-.05H64.6l-2.44,0h-4.5a.66.66,0,0,0-.36.11A.63.63,0,0,0,57,26v.19c0,1-.06,2-.08,2.89,0,.47,0,.93,0,1.38,0,.12,0,.23,0,.34a1.93,1.93,0,0,0,0,.34.59.59,0,0,0,.41.5.71.71,0,0,0,.32,0h7.6a.66.66,0,0,0,.21-.08.59.59,0,0,0,.24-.26.87.87,0,0,0,.06-.21Z"></path><path class="cls-3" d="M57.56,27.27v.85c0,.55,0,1.34,0,2.31v.19a.43.43,0,0,0,0,.19.4.4,0,0,0,.15.14A.51.51,0,0,0,58,31h6.59a.39.39,0,0,0,.23-.19l0-.13s0-.07,0-.12v-.23c0-.16,0-.32,0-.48s0-.62,0-.92c0-.61,0-1.19,0-1.76v0h0c-2.08.13-3.87.16-5.14.17H58.09l1.48,0c1.27,0,3.06,0,5.15-.15l0,0c0,.56,0,1.14,0,1.75,0,.3,0,.61,0,.93,0,.15,0,.31,0,.47v.24a.53.53,0,0,1,0,.22.29.29,0,0,1-.19.15H58a.4.4,0,0,1-.19,0,.3.3,0,0,1-.13-.12.33.33,0,0,1,0-.17v-.19c0-1,0-1.76,0-2.3,0-.27,0-.49,0-.63v-.23Z"></path><path class="cls-3" d="M59.65,30.5s0,0-.13,0a.67.67,0,0,1-.32-.17.68.68,0,0,1-.17-.53c0-.23,0-.49,0-.78v-.45a.65.65,0,0,1,.13-.44.6.6,0,0,1,.43-.23h.55l2.47,0a.62.62,0,0,1,.52.29.75.75,0,0,1,.09.29v.31c0,.21,0,.41,0,.61v.29a2.8,2.8,0,0,1,0,.29.63.63,0,0,1-.29.43.62.62,0,0,1-.24.08H61.5l-1.36,0h2.3a2.26,2.26,0,0,0,.26,0A.62.62,0,0,0,63,30.4a.68.68,0,0,0,.31-.47,2.81,2.81,0,0,0,0-.29v-.29c0-.2,0-.4,0-.61v-.31a.62.62,0,0,0-.09-.32.68.68,0,0,0-.57-.31l-2.47,0h-.55a.64.64,0,0,0-.46.25.65.65,0,0,0-.14.47V29c0,.29,0,.55,0,.78v.16a.75.75,0,0,0,0,.16.71.71,0,0,0,.15.22.61.61,0,0,0,.33.17Z"></path><path class="cls-25" d="M61.24,31.43A11.85,11.85,0,0,0,64.48,31H58.05A11.44,11.44,0,0,0,61.24,31.43Z"></path><path class="cls-22" d="M58.05,31h6.43l.11,0-6.65,0Z"></path><path class="cls-2" d="M60.44,28.63h.92a.21.21,0,0,0,.21-.21v-.07a.22.22,0,0,0-.21-.21h-.93a.21.21,0,0,0-.2.22v.06A.21.21,0,0,0,60.44,28.63Z"></path><path class="cls-17" d="M60.51,22.36a2.35,2.35,0,0,0-.33.37,5.69,5.69,0,0,0-.24.81s.12.11.34-.24a2.65,2.65,0,0,0,.28-.52Z"></path><path class="cls-17" d="M61.58,21.07l-.29.51-.79.8-.3,1.19a.52.52,0,0,0,0,.37.15.15,0,0,0,.08.09c.09,0,.34-.09.34-.09s.18.23.38.1c0,0,.28.14.44,0,0,0,.18.14.31.05a4.43,4.43,0,0,0,.52-.64l.51-1.84Z"></path><path class="cls-26" d="M50.43,16.17l-1.83.18-1.7-.63a.15.15,0,0,1-.08-.08.17.17,0,0,1,.19-.22l1.71.25a.34.34,0,0,0,.28-.1l.59-.53-.54-.37a.33.33,0,0,1-.12-.38,9.33,9.33,0,0,1,1.48.58l.52.26Z"></path><path class="cls-26" d="M56.67,2A2.26,2.26,0,0,1,59,0h.11a2,2,0,0,1,1.75,2.5L60.73,7,58.55,9.36l-.92-1.5V6.36a1.45,1.45,0,0,1-1.2-1.43C56.45,4.34,56.56,3.13,56.67,2Z"></path><path class="cls-24" d="M57.63,6.36a3,3,0,0,0,1.61-.43,1.46,1.46,0,0,1-1.59.75Z"></path><path class="cls-3" d="M57,3.15a.17.17,0,0,0,.16.18.16.16,0,0,0,.18-.15A.18.18,0,0,0,57.15,3,.16.16,0,0,0,57,3.15Z"></path><path class="cls-3" d="M56.92,2.64s.15-.07.34-.07.32.1.34.08,0,0-.07-.1a.53.53,0,0,0-.27-.09.46.46,0,0,0-.27.08C56.93,2.59,56.91,2.63,56.92,2.64Z"></path><path class="cls-3" d="M58.67,3.22a.17.17,0,0,0,.16.18A.16.16,0,0,0,59,3.25a.17.17,0,0,0-.16-.18A.16.16,0,0,0,58.67,3.22Z"></path><path class="cls-3" d="M58.76,2.71s.15-.07.34-.06.32.1.34.08,0-.06-.07-.1a.44.44,0,0,0-.27-.09.52.52,0,0,0-.28.08S58.75,2.7,58.76,2.71Z"></path><path class="cls-3" d="M57.9,4.14l-.3,0c-.05,0-.09,0-.1,0s0,0,0-.07l.14-.19A2.73,2.73,0,0,0,58,3.33a3.2,3.2,0,0,0-.41.47l-.14.2s0,.06,0,.09a.1.1,0,0,0,.07,0h.09A1.17,1.17,0,0,0,57.9,4.14Z"></path><path class="cls-3" d="M58.71,2.07c0,.05.19,0,.39,0s.36,0,.38,0,0-.07-.1-.11a.59.59,0,0,0-.29-.07A.55.55,0,0,0,58.8,2C58.73,2,58.7,2.05,58.71,2.07Z"></path><path class="cls-3" d="M56.91,2s.19,0,.38,0,.34,0,.38,0,0-.06-.08-.1a.51.51,0,0,0-.3-.08.64.64,0,0,0-.31.08C56.92,1.91,56.89,2,56.91,2Z"></path><path class="cls-26" d="M60.62,3.68A.32.32,0,0,1,61,3.37c.23,0,.48.16.46.63a.63.63,0,0,1-.88.59S60.6,4,60.62,3.68Z"></path><path class="cls-24" d="M60.76,4.28l0,0a.14.14,0,0,0,.11,0c.09,0,.17-.16.18-.31a.37.37,0,0,0,0-.21.16.16,0,0,0-.1-.11.07.07,0,0,0-.09,0,.1.1,0,0,0,0,0s0,0,0,0l0-.05a.11.11,0,0,1,.08,0c.06,0,.12.07.14.13a.47.47,0,0,1,0,.24.35.35,0,0,1-.23.34.13.13,0,0,1-.13,0A.05.05,0,0,1,60.76,4.28Z"></path><path class="cls-24" d="M58.62,4.43a.45.45,0,0,1-.18.55.31.31,0,0,1-.23,0A.3.3,0,0,1,58,4.84a.57.57,0,0,1-.06-.28Z"></path><path class="cls-3" d="M58,4.89l0,.05a.38.38,0,0,0,.18.07.37.37,0,0,0,.27-.09.41.41,0,0,0,.16-.3,1.11,1.11,0,0,0,0-.19h0l-.49.1a.91.91,0,0,0-.19.05l.19,0,.5-.08,0,0a.53.53,0,0,1,0,.18.4.4,0,0,1-.14.28.37.37,0,0,1-.25.09.56.56,0,0,1-.17-.06Z"></path><path class="cls-3" d="M59.08,37.93l.12,2.71s-2.72,1-2.75,1.54l5.27,0V37.9Z"></path><path class="cls-9" d="M61.72,42.14l0-.43-5,.2s-.23.1-.21.27Z"></path><path class="cls-3" d="M59.11,40.62s.13,0,.26.12.19.19.22.18,0-.16-.17-.26S59.11,40.59,59.11,40.62Z"></path><path class="cls-3" d="M58.56,40.85s.11.07.2.18.11.22.14.22,0-.15-.07-.28S58.56,40.83,58.56,40.85Z"></path><path class="cls-3" d="M58.25,41.52s.06-.13,0-.27-.18-.2-.19-.17.06.09.11.21S58.23,41.51,58.25,41.52Z"></path><path class="cls-3" d="M59.15,40s.13,0,.28,0,.26.06.27,0-.1-.11-.27-.12S59.14,40,59.15,40Z"></path><path class="cls-3" d="M59.09,40a3.08,3.08,0,0,0,0,.65l0,0a11.16,11.16,0,0,0-1.15.48,5.77,5.77,0,0,0-1.17.67,1.56,1.56,0,0,0-.29.29.25.25,0,0,0,0,.15.92.92,0,0,1,.07-.13,1.73,1.73,0,0,1,.3-.26A7.49,7.49,0,0,1,58,41.15c.43-.21.83-.37,1.13-.5h0v0C59.12,40.22,59.1,40,59.09,40Z"></path><path class="cls-3" d="M62.49,19,63,22.1l-1.29,7.25s.1,3.66.29,5.73a38.51,38.51,0,0,1-.1,5H59L58,29.55,57.37,23l-1.16-3.87Z"></path><path class="cls-3" d="M57.39,37.46l.75,2.61s-2.4,1.64-2.3,2.14L61,40.93l-1-4.11Z"></path><path class="cls-9" d="M61,40.93l-.12-.41L56,41.9s-.2.15-.13.31Z"></path><path class="cls-9" d="M58.05,40.06s.14,0,.28.06.24.14.26.12-.06-.15-.23-.21S58,40,58.05,40.06Z"></path><path class="cls-9" d="M57.57,40.42s.12,0,.23.13.17.18.19.18,0-.16-.13-.26A.28.28,0,0,0,57.57,40.42Z"></path><path class="cls-9" d="M57.43,41.14s0-.14-.07-.26-.23-.14-.24-.12.09.08.17.18S57.4,41.14,57.43,41.14Z"></path><path class="cls-3" d="M58,39.45s.12,0,.26-.07.27,0,.27,0-.11-.09-.28-.06S57.93,39.43,58,39.45Z"></path><path class="cls-3" d="M55.1,19.18,55,20.52,55,29.88a3.18,3.18,0,0,0,.16,1L57.4,38,58,39.92l2.94-.55L58.62,19.19Z"></path><path class="cls-9" d="M55.19,30.92a.18.18,0,0,0,0,0,.86.86,0,0,1,0,.13c0,.11.09.28.15.49L56,33.45c.48,1.59,1.17,3.84,2,6.48v0h0l2.93-.53h0v0l-.47-2.33c-.47-2.37-.92-4.61-1.31-6.56h0c.48-2.9.87-5.2,1.09-6.53h0l.49-.84.13-.22a.46.46,0,0,0,0-.08l0,.07c0,.05-.07.13-.13.22l-.5.84h0c-.23,1.32-.62,3.63-1.12,6.52h0c.39,1.95.83,4.19,1.31,6.56.16.8.31,1.58.46,2.33l0,0L58,39.9l0,0c-.82-2.64-1.51-4.89-2-6.48-.25-.79-.45-1.42-.58-1.85l-.16-.5a.83.83,0,0,0,0-.12A.18.18,0,0,1,55.19,30.92Z"></path><path class="cls-27" d="M64.5,13a12.37,12.37,0,0,1,.17,3.32,16,16,0,0,1-2.22,3.22l-2.7-1.67,1.78-4.37Z"></path><path class="cls-27" d="M63,8.09A1.89,1.89,0,0,0,61.1,9.92a32,32,0,0,0,.33,4.13l3.2-.22a39.09,39.09,0,0,0-.46-4.29A2.47,2.47,0,0,0,63,8.09Z"></path><path class="cls-27" d="M55.36,15.41l1-7.23,1-.61A1.28,1.28,0,0,1,58.1,7l2.65-.87.17.66,2.36,1.43-.83,7.83.75,6.56H61.8l-.52-1.53-.15,1.53-6.43-.18Z"></path><path class="cls-27" d="M56.75,7.91a2.36,2.36,0,0,0-1.28,1.72c-.1.44-1,4.78-1,4.78l-4,.36-.33,2,4.35.29a2.19,2.19,0,0,0,2.69-2l0-.12c.32-1.52.75-3.65.81-4.38C58.17,9.59,57.93,8.19,56.75,7.91Z"></path><path class="cls-3" d="M58.72,16.54h.13l.35,0,1.15,0c.46,0,.87,0,1.16,0H62s0,0-.13,0h-.35l-1.15,0-1.16,0h-.48Z"></path><path class="cls-3" d="M63.48,10.78v0a.45.45,0,0,1,0,.08q0,.11-.06.3c0,.27-.12.65-.21,1.11-.18.95-.42,2.25-.69,3.69,0,.09,0,.18-.05.27h0c.16,1.39.31,2.64.42,3.55,0,.44.09.8.13,1.06s0,.22,0,.29a.35.35,0,0,1,0,.1v-.11c0-.07,0-.16,0-.28s-.07-.62-.11-1.07c-.11-.91-.24-2.15-.4-3.54h0c0-.09,0-.18,0-.27.26-1.44.5-2.74.67-3.69.08-.47.15-.85.2-1.12s0-.23,0-.3v-.11Z"></path><path class="cls-3" d="M57.28,7.59s0,0,.14,0l.39-.1c.32-.08.78-.19,1.28-.29l1.29-.24.4-.07.14,0h-.15l-.39,0c-.34,0-.8.11-1.3.22a12.79,12.79,0,0,0-1.28.31l-.39.12Z"></path><path class="cls-3" d="M56.29,8.3s.15,0,.4,0a1.46,1.46,0,0,1,.86.43,1.69,1.69,0,0,1,.44.86,3.73,3.73,0,0,1,0,.4s0,0,0-.1a1.12,1.12,0,0,0,0-.31,1.61,1.61,0,0,0-.43-.9,1.52,1.52,0,0,0-.9-.43,1.47,1.47,0,0,0-.31,0Z"></path><path class="cls-3" d="M57.47,12.3v0s0,.09,0,.15,0,.34-.06.59c-.06.52-.2,1.25-.32,2.17l0,.08v0h0s-.05,0,0,0h0v0l0,.17a2,2,0,0,1-.11.35,2,2,0,0,1-.4.66,1.68,1.68,0,0,1-.71.41,2.77,2.77,0,0,1-.87.09l-4-.26-.75,0,0,0c.12-.71.23-1.39.34-2.05l0,0,4-.36h0v0c.21-1,.37-1.86.48-2.45.06-.28.1-.51.13-.66s0-.13,0-.18a.15.15,0,0,1,0-.06s0,0,0,.06,0,.1,0,.18L55,12c-.12.58-.28,1.41-.49,2.44l0,0-4,.34h0v0c-.11.66-.22,1.34-.33,2v0h0l.75,0,4,.26a2.71,2.71,0,0,0,.9-.09,1.91,1.91,0,0,0,.73-.43A2,2,0,0,0,57,16a2.79,2.79,0,0,0,.11-.35l0-.18v-.05h0v-.11c.13-.91.25-1.65.31-2.16,0-.26,0-.46,0-.6a.72.72,0,0,0,0-.15Z"></path></g></g></svg>