<svg xmlns="http://www.w3.org/2000/svg" xml:space="preserve" style="enable-background:new 0 0 137.54 136.71" viewBox="0 0 137.54 136.71"><path d="M121.76 129.14H16.97c-4.13 0-7.49-3.36-7.49-7.49V29.33h119.77v92.32c0 4.13-3.36 7.49-7.49 7.49zM14.47 34.32v87.33a2.5 2.5 0 0 0 2.5 2.5h104.8a2.5 2.5 0 0 0 2.5-2.5V34.32H14.47z"/><path d="M129.25 34.32H9.48V16.85c0-4.13 3.36-7.49 7.49-7.49h104.8c4.13 0 7.49 3.36 7.49 7.49l-.01 17.47zM14.47 29.33h109.79V16.85a2.5 2.5 0 0 0-2.5-2.5H16.97a2.5 2.5 0 0 0-2.5 2.5v12.48z"/><path d="M21.96 19.35h4.99v4.99h-4.99v-4.99zM34.43 19.35h4.99v4.99h-4.99v-4.99zM46.91 19.35h4.99v4.99h-4.99v-4.99zM69.37 119.16c-.84 0-1.61-.42-2.07-1.11-1.04-1.55-25.37-38.07-25.37-52.04 0-14.73 12.31-26.7 27.45-26.7 14.88 0 27.45 12.49 27.45 27.26 0 13.98-24.35 49.96-25.38 51.49-.49.69-1.26 1.1-2.08 1.1zm0-74.86c-12.38 0-22.46 9.74-22.46 21.71 0 9.43 14.7 34.1 22.47 46.13 7.78-11.86 22.44-36.16 22.44-45.56 0-12.08-10.28-22.28-22.45-22.28z"/><path d="M69.37 79.23c-6.88 0-12.48-5.6-12.48-12.48 0-6.88 5.6-12.48 12.48-12.48 6.88 0 12.48 5.6 12.48 12.48-.01 6.89-5.61 12.48-12.48 12.48zm0-19.96c-4.13 0-7.49 3.36-7.49 7.49 0 4.13 3.36 7.49 7.49 7.49s7.49-3.36 7.49-7.49c-.01-4.13-3.37-7.49-7.49-7.49z"/></svg>