<svg xmlns="http://www.w3.org/2000/svg" xml:space="preserve" style="enable-background:new 0 0 163.78 153.56" viewBox="0 0 163.78 153.56"><path d="M142.2 34.89H29.4a9.59 9.59 0 0 0-9.6 9.6v4.5h-4.09c-5.11 0-9.4 4.29-9.4 9.4v61.51c0 4.9 4.09 8.99 9.4 8.99h113.41c5.11 0 9.4-4.29 9.4-9.4v-4.7h4.09c5.31 0 9.6-4.29 9.6-9.6V44.3c-.4-5.33-4.7-9.41-10.01-9.41zm-7.15 84.8c0 3.27-2.66 6.13-6.13 6.13H15.71c-3.27 0-6.13-2.66-6.13-6.13V83.32h125.47v36.37zm0-51.49H9.58V58.18c0-3.27 2.66-6.13 6.13-6.13h113.41c3.27 0 6.13 2.66 6.13 6.13V68.2h-.2zm13.49 37.19c0 3.47-2.86 6.33-6.33 6.33h-4.09V58.18c0-5.11-4.29-9.4-9.4-9.4H23.07v-4.5c0-3.47 2.86-6.33 6.33-6.33h113c3.47 0 6.33 2.86 6.33 6.33v61.1l-.19.01z"/></svg>