<svg xmlns="http://www.w3.org/2000/svg" xml:space="preserve" style="enable-background:new 0 0 172.49 136.71" viewBox="0 0 172.49 136.71"><path d="M47.67 38.31c-.86 0-1.66-.4-2.18-1.09-.52-.68-.68-1.57-.45-2.4l1.99-6.96a8.19 8.19 0 0 1 2.95-4.28 8.268 8.268 0 0 1 4.93-1.66h12.21c1.51 0 2.73 1.22 2.73 2.73s-1.22 2.73-2.73 2.73h-12.2c-1.22 0-2.29.8-2.63 1.98l-1.99 6.97a2.742 2.742 0 0 1-2.63 1.98z"/><path d="M162.71 41.04c1.51 0 2.73-1.22 2.73-2.73s-1.22-2.73-2.73-2.73h-10.92c-.72 0-1.42.29-1.93.8l-8.25 8.25-5.65-19.76c-1.15-3.99-3.57-7.5-6.88-10s-7.35-3.86-11.5-3.87H54.91c-4.15.01-8.19 1.37-11.5 3.87-3.32 2.5-5.73 6.01-6.88 9.99l-5.65 19.76-8.25-8.25c-.51-.51-1.21-.8-1.93-.8H9.77c-1.51 0-2.73 1.22-2.73 2.73s1.22 2.73 2.73 2.73h9.79l6.79 6.79-.03-.01A15.5 15.5 0 0 0 13 50.64a15.523 15.523 0 0 0-5.97 12.24c0 .11.01.23.02.34l5.46 43.7a2.724 2.724 0 0 0 2.71 2.39h2.73v8.19c0 2.17.87 4.26 2.4 5.79a8.182 8.182 0 0 0 5.79 2.4h16.39c2.17 0 4.26-.87 5.79-2.4a8.182 8.182 0 0 0 2.4-5.79v-8.19h71.01v8.19c0 2.17.87 4.26 2.4 5.79a8.182 8.182 0 0 0 5.79 2.4h16.39c2.17 0 4.26-.87 5.79-2.4a8.182 8.182 0 0 0 2.4-5.79v-8.19h2.73c1.38 0 2.54-1.03 2.71-2.39l5.46-43.7c.01-.11.02-.23.02-.34 0-4.78-2.2-9.3-5.97-12.24a15.566 15.566 0 0 0-13.32-2.83l-.03.01 6.79-6.79 9.82.01zM41.78 26.37c.82-2.85 2.55-5.35 4.91-7.14 2.37-1.78 5.25-2.76 8.21-2.76h62.68c2.97.01 5.85.98 8.21 2.77 2.37 1.79 4.09 4.29 4.91 7.14L137.46 50l-18.78 4.7H53.81L35.03 50l6.75-23.63zM13.55 71.08h12.61c3.15.01 6.19 1.1 8.63 3.09 2.44 1.99 4.12 4.76 4.75 7.84H14.91l-1.36-10.93zm31.73 46.43c0 1.51-1.22 2.73-2.73 2.73H26.16c-1.51 0-2.73-1.22-2.73-2.73v-8.19h21.85v8.19zm103.78 0c0 1.51-1.22 2.73-2.73 2.73h-16.39c-1.51 0-2.73-1.22-2.73-2.73v-8.19h21.85v8.19zm8.51-35.5h-24.63c.64-3.08 2.32-5.85 4.75-7.84a13.73 13.73 0 0 1 8.63-3.09h12.61l-1.36 10.93zm-10.09-28.88c2.98-.74 6.14-.09 8.57 1.78 2.44 1.87 3.88 4.75 3.93 7.82l-.36 2.89h-13.29c-5.07.01-9.93 2.02-13.51 5.61-3.58 3.58-5.6 8.44-5.61 13.51 0 .72.29 1.42.8 1.93s1.21.8 1.93.8h26.95l-2.05 16.39H17.65L15.6 87.47h26.95c.72 0 1.42-.29 1.93-.8s.8-1.21.8-1.93c-.01-5.07-2.02-9.93-5.61-13.51-3.58-3.58-8.44-5.6-13.51-5.61H12.87l-.36-2.89c.05-3.07 1.5-5.95 3.93-7.82 2.44-1.87 5.59-2.53 8.57-1.78l27.8 6.95c.22.05.44.08.66.08h65.55c.22 0 .45-.03.66-.08l27.8-6.95z"/><path d="M108.09 82.01h-43.7c-.95 0-1.83.49-2.32 1.29-.5.81-.54 1.81-.12 2.66l5.46 10.92c.68 1.35 2.32 1.9 3.67 1.22 1.35-.68 1.9-2.32 1.22-3.67l-3.49-6.97h34.86l-3.49 6.97c-.32.65-.38 1.4-.15 2.08.23.69.72 1.26 1.37 1.58 1.35.67 2.99.13 3.67-1.22l5.46-10.92c.42-.85.38-1.85-.12-2.66a2.732 2.732 0 0 0-2.32-1.28zM34.35 95.67c0 1.51-1.22 2.73-2.73 2.73s-2.73-1.22-2.73-2.73 1.22-2.73 2.73-2.73a2.72 2.72 0 0 1 2.73 2.73M143.6 95.67c0 1.51-1.22 2.73-2.73 2.73s-2.73-1.22-2.73-2.73 1.22-2.73 2.73-2.73 2.73 1.22 2.73 2.73"/></svg>